<svg width="195" height="193" viewBox="0 0 195 193" fill="none" xmlns="http://www.w3.org/2000/svg">
<path d="M101.235 17.8242H102.323L98.9193 26.7812H97.742L94.3895 17.8242H95.4772L98.3562 25.6936L101.235 17.8242Z" fill="white"/>
<path d="M104.882 20.0872L105.825 20.179L105.191 26.5455L104.249 26.4536L104.882 20.0872ZM105.493 18.861C105.298 18.842 105.143 18.7626 105.028 18.6229C104.914 18.4831 104.865 18.3199 104.884 18.1331C104.903 17.9379 104.983 17.7828 105.123 17.6679C105.263 17.553 105.431 17.505 105.626 17.5241C105.804 17.5415 105.951 17.62 106.066 17.7598C106.189 17.9003 106.241 18.0682 106.221 18.2635C106.203 18.4502 106.119 18.6006 105.971 18.7147C105.831 18.8296 105.671 18.8784 105.493 18.861Z" fill="white"/>
<path d="M112.065 24.9611C112.065 25.2219 112.115 25.4491 112.215 25.6427C112.317 25.828 112.464 25.983 112.657 26.1079C112.858 26.2343 113.1 26.3256 113.385 26.3816C113.828 26.4689 114.18 26.4512 114.44 26.3284C114.709 26.1989 114.87 26.0045 114.922 25.7452C114.966 25.5278 114.93 25.3382 114.815 25.1763C114.708 25.0162 114.55 24.872 114.34 24.7439C114.133 24.6074 113.898 24.4786 113.635 24.3573C113.428 24.2643 113.205 24.1596 112.967 24.0433C112.731 23.9186 112.513 23.7713 112.312 23.6013C112.111 23.4314 111.96 23.2321 111.858 23.0033C111.756 22.7746 111.738 22.4972 111.804 22.171C111.876 21.8114 112.035 21.5167 112.281 21.287C112.538 21.0505 112.853 20.8908 113.226 20.8078C113.608 20.7265 114.025 20.7303 114.477 20.8192C114.996 20.9214 115.433 21.1249 115.79 21.4298C116.154 21.7363 116.368 22.1436 116.432 22.6516L115.492 22.7797C115.477 22.5507 115.402 22.362 115.267 22.2137C115.14 22.0669 114.984 21.9537 114.8 21.874C114.624 21.7959 114.444 21.7388 114.26 21.7025C113.883 21.6284 113.563 21.6435 113.298 21.7479C113.044 21.8456 112.887 22.0408 112.828 22.3335C112.796 22.4924 112.807 22.6337 112.86 22.7572C112.916 22.8724 113.003 22.9766 113.124 23.0699C113.244 23.1632 113.392 23.253 113.566 23.3394C113.741 23.4175 113.932 23.5072 114.138 23.6086C114.369 23.7149 114.601 23.8388 114.833 23.9802C115.068 24.1133 115.279 24.2723 115.468 24.4573C115.659 24.634 115.799 24.8442 115.89 25.088C115.99 25.3251 116.008 25.6025 115.944 25.9203C115.87 26.2883 115.705 26.5905 115.449 26.827C115.194 27.0551 114.872 27.209 114.482 27.2886C114.1 27.37 113.674 27.3645 113.206 27.2723C112.561 27.1454 112.054 26.8978 111.684 26.5294C111.325 26.1543 111.13 25.6726 111.1 25.0843L112.065 24.9611Z" fill="white"/>
<path d="M120.267 21.7492L121.174 22.0214L119.299 28.1384L118.392 27.8662L120.267 21.7492ZM121.108 20.6656C120.92 20.6092 120.783 20.5014 120.698 20.3423C120.613 20.1832 120.598 20.0139 120.653 19.8345C120.711 19.6469 120.819 19.5103 120.979 19.4248C121.139 19.3392 121.313 19.3246 121.501 19.381C121.673 19.4326 121.801 19.5379 121.886 19.697C121.98 19.8586 121.997 20.0332 121.94 20.2207C121.885 20.4002 121.773 20.5314 121.605 20.6145C121.445 20.7001 121.279 20.7171 121.108 20.6656Z" fill="white"/>
<path d="M126.66 31.1247C126.1 30.895 125.65 30.5676 125.31 30.1425C124.97 29.7173 124.768 29.2287 124.703 28.6767C124.641 28.1168 124.741 27.526 125.001 26.9043C125.264 26.2748 125.618 25.7836 126.061 25.4307C126.513 25.0811 127.011 24.8749 127.555 24.8121C128.107 24.7526 128.663 24.8377 129.224 25.0674C129.784 25.2971 130.234 25.6245 130.574 26.0496C130.922 26.478 131.127 26.9721 131.188 27.5321C131.261 28.0874 131.167 28.6758 130.907 29.2975C130.643 29.927 130.286 30.4166 129.834 30.7662C129.383 31.1159 128.881 31.3204 128.329 31.38C127.777 31.4395 127.221 31.3544 126.66 31.1247ZM126.999 30.2818C127.347 30.4241 127.705 30.4837 128.076 30.4603C128.45 30.4291 128.799 30.291 129.123 30.0461C129.459 29.7964 129.732 29.4198 129.943 28.9162C130.157 28.4047 130.237 27.9488 130.183 27.5486C130.128 27.1483 129.978 26.8103 129.733 26.5346C129.499 26.2543 129.208 26.043 128.861 25.9006C128.514 25.7582 128.157 25.7043 127.791 25.7387C127.429 25.7653 127.084 25.905 126.756 26.1579C126.439 26.4061 126.176 26.782 125.965 27.2856C125.751 27.7971 125.667 28.2513 125.713 28.6484C125.76 29.0454 125.896 29.3825 126.122 29.6596C126.36 29.932 126.652 30.1394 126.999 30.2818Z" fill="white"/>
<path d="M133.88 26.7256L134.661 27.1384L134.274 27.9617C134.605 27.7797 134.958 27.6914 135.334 27.6969C135.713 27.6948 136.098 27.7975 136.491 28.0049C136.92 28.2322 137.247 28.5254 137.47 28.8846C137.697 29.2362 137.801 29.6438 137.784 30.1073C137.77 30.5633 137.615 31.0652 137.319 31.6132L135.568 34.8556L134.719 34.4069L136.416 31.2658C136.732 30.6803 136.843 30.1697 136.749 29.7339C136.667 29.2945 136.388 28.9492 135.913 28.6979C135.422 28.4387 134.951 28.3966 134.497 28.5718C134.052 28.751 133.658 29.1558 133.318 29.7862L131.688 32.8035L130.84 32.3548L133.88 26.7256Z" fill="white"/>
<path d="M141.548 35.734C141.978 35.2153 142.456 34.8124 142.982 34.5254C143.514 34.2319 144.063 34.0572 144.63 34.0013C145.209 33.9443 145.775 33.9971 146.327 34.1598C146.886 34.3279 147.41 34.6109 147.9 35.0088C148.616 35.5896 149.105 36.262 149.369 37.0259C149.64 37.7952 149.664 38.5948 149.441 39.4248L148.599 39.1368C148.714 38.6914 148.73 38.2647 148.647 37.8568C148.57 37.4423 148.416 37.0535 148.185 36.6903C147.954 36.3271 147.663 36.003 147.312 35.718C146.816 35.3147 146.276 35.0633 145.694 34.9639C145.111 34.8645 144.53 34.9308 143.95 35.1628C143.376 35.4002 142.847 35.8111 142.362 36.3955C141.883 36.9733 141.582 37.5637 141.458 38.1668C141.341 38.7753 141.386 39.3558 141.593 39.9082C141.805 40.4542 142.16 40.9288 142.656 41.3321C143.014 41.6225 143.401 41.8436 143.818 41.9955C144.235 42.1474 144.671 42.21 145.125 42.1834C145.586 42.1621 146.043 42.0387 146.496 41.8132L146.946 42.5739C146.1 43.019 145.258 43.1924 144.42 43.094C143.587 42.9891 142.803 42.6382 142.068 42.0413C141.578 41.6433 141.195 41.1896 140.92 40.6801C140.651 40.1759 140.488 39.6372 140.432 39.0639C140.382 38.4959 140.448 37.9287 140.63 37.362C140.817 36.7888 141.123 36.2462 141.548 35.734Z" fill="white"/>
<path d="M151.726 41.0631L152.354 41.6842L151.726 42.3772C152.011 42.3352 152.296 42.3412 152.581 42.3952C152.872 42.4552 153.142 42.5662 153.391 42.7282C153.651 42.8902 153.879 43.1092 154.073 43.3852L153.391 44.0603C153.184 43.7602 152.954 43.5322 152.699 43.3762C152.451 43.2262 152.187 43.1452 151.908 43.1332C151.629 43.1212 151.347 43.1782 151.062 43.3042C150.783 43.4242 150.51 43.6162 150.244 43.8803L147.861 46.2384L147.178 45.5633L151.726 41.0631Z" fill="white"/>
<path d="M153.132 52.4169C152.75 51.9572 152.523 51.4554 152.448 50.9114C152.379 50.374 152.456 49.8449 152.678 49.324C152.9 48.8032 153.262 48.3384 153.765 47.9297C154.249 47.5372 154.764 47.2894 155.31 47.1864C155.856 47.0834 156.382 47.1232 156.888 47.3057C157.401 47.4828 157.845 47.7979 158.221 48.2509C158.591 48.6974 158.821 49.1754 158.911 49.6847C159.007 50.2006 158.96 50.6996 158.773 51.1816C158.585 51.6636 158.261 52.0809 157.8 52.4334C157.727 52.4926 157.648 52.5511 157.563 52.6091C157.478 52.6671 157.387 52.7304 157.288 52.7991L154.127 48.9874C153.827 49.2533 153.615 49.552 153.491 49.8835C153.367 50.215 153.328 50.5488 153.374 50.885C153.432 51.2224 153.581 51.5355 153.82 51.8244C154.136 52.2053 154.476 52.4679 154.839 52.6122C155.208 52.7631 155.578 52.7874 155.947 52.6851L156.22 53.5351C155.639 53.6769 155.081 53.6521 154.546 53.4606C154.017 53.2638 153.545 52.9159 153.132 52.4169ZM157.289 51.4967C157.579 51.272 157.779 51.0053 157.888 50.6965C158.004 50.3943 158.029 50.0772 157.964 49.7452C157.899 49.4132 157.741 49.0962 157.491 48.7941C157.273 48.5315 157.011 48.3429 156.706 48.2284C156.4 48.1139 156.075 48.0758 155.73 48.1142C155.397 48.1538 155.081 48.2734 154.781 48.473L157.289 51.4967Z" fill="white"/>
<path d="M159.494 58.8246L160.411 58.1258C159.984 58.1938 159.58 58.144 159.199 57.9764C158.825 57.8042 158.488 57.4954 158.187 57.05C157.93 56.6682 157.771 56.303 157.71 55.9544C157.65 55.6057 157.68 55.2843 157.8 54.99C157.932 54.698 158.151 54.4509 158.457 54.2486C158.906 53.9521 159.384 53.876 159.893 54.0201C160.409 54.1594 160.912 54.5226 161.401 55.1094L162.685 56.6226L163.112 56.3403C163.411 56.1427 163.575 55.8755 163.605 55.5387C163.642 55.1972 163.534 54.8391 163.281 54.4644C163.033 54.0968 162.74 53.8457 162.402 53.7112C162.069 53.5837 161.711 53.5799 161.329 53.6997L161.098 52.8092C161.663 52.6401 162.204 52.6558 162.72 52.8564C163.241 53.0641 163.686 53.4402 164.053 53.9845C164.478 54.6137 164.644 55.2098 164.55 55.7726C164.469 56.3378 164.151 56.8039 163.596 57.1709L159.988 59.5563L159.494 58.8246ZM162.002 57.0742L160.7 55.5576C160.418 55.2323 160.137 55.0295 159.857 54.9492C159.583 54.8642 159.322 54.904 159.073 55.0687C158.824 55.2334 158.684 55.4535 158.654 55.729C158.629 56.0116 158.731 56.3226 158.96 56.662C159.222 57.0508 159.516 57.3172 159.839 57.4611C160.163 57.6051 160.494 57.6466 160.834 57.5856C161.186 57.527 161.518 57.3942 161.831 57.1872L162.002 57.0742Z" fill="white"/>
<path d="M167.371 60.8409L169.028 60.1615L169.399 61.0468L167.741 61.7262L168.398 63.2961L167.57 63.6358L166.912 62.0659L163.727 63.3714C163.364 63.5202 163.131 63.7033 163.028 63.9208C162.928 64.1461 162.912 64.3833 162.979 64.6323C163.05 64.8891 163.155 65.141 163.295 65.3877L162.526 65.7031C162.326 65.4254 162.18 65.1305 162.086 64.8185C161.996 64.5144 161.972 64.2152 162.016 63.9209C162.07 63.6313 162.202 63.3606 162.411 63.109C162.623 62.8652 162.939 62.6576 163.357 62.4861L166.542 61.1806L166.171 60.2954L167 59.9557L167.371 60.8409Z" fill="white"/>
<path d="M170.526 67.6033L170.804 68.5086L164.676 70.3481L164.399 69.4428L170.526 67.6033ZM171.894 67.7003C171.837 67.5127 171.851 67.3394 171.936 67.1803C172.021 67.0211 172.153 66.9146 172.333 66.8606C172.521 66.8042 172.695 66.8188 172.855 66.9043C173.015 66.9899 173.124 67.1265 173.181 67.3141C173.234 67.4853 173.217 67.6505 173.132 67.8097C173.05 67.9769 172.915 68.0888 172.727 68.1452C172.547 68.1992 172.376 68.1793 172.213 68.0856C172.053 68 171.947 67.8716 171.894 67.7003Z" fill="white"/>
<path d="M166.713 77.6628C166.593 77.0691 166.616 76.5124 166.782 75.993C166.947 75.4736 167.241 75.0331 167.665 74.6716C168.096 74.3084 168.643 74.0618 169.304 73.9316C169.974 73.7998 170.578 73.8199 171.117 73.992C171.658 74.1725 172.106 74.4713 172.459 74.8886C172.814 75.3142 173.052 75.8239 173.171 76.4177C173.29 77.0115 173.267 77.5681 173.102 78.0875C172.939 78.6153 172.641 79.0608 172.209 79.424C171.788 79.7939 171.246 80.0439 170.585 80.174C169.915 80.3058 169.31 80.2815 168.769 80.1011C168.228 79.9207 167.78 79.6176 167.425 79.192C167.07 78.7664 166.832 78.2566 166.713 77.6628ZM167.602 77.4748C167.676 77.8428 167.825 78.1743 168.05 78.4691C168.283 78.7623 168.591 78.9755 168.974 79.1087C169.368 79.2486 169.832 79.2658 170.368 79.1604C170.912 79.0533 171.336 78.8656 171.638 78.5973C171.941 78.3291 172.139 78.0162 172.233 77.6587C172.336 77.308 172.351 76.9486 172.277 76.5806C172.203 76.2126 172.051 75.8862 171.819 75.6014C171.596 75.3149 171.289 75.1059 170.897 74.9743C170.515 74.8495 170.057 74.8398 169.521 74.9453C168.977 75.0524 168.553 75.2359 168.248 75.4958C167.944 75.7557 167.739 76.0568 167.633 76.3992C167.538 76.7483 167.528 77.1069 167.602 77.4748Z" fill="white"/>
<path d="M174.358 82.1176L174.445 82.9962L173.546 83.1352C173.881 83.3083 174.149 83.5522 174.352 83.8667C174.563 84.1803 174.691 84.5579 174.735 84.9993C174.783 85.4831 174.719 85.9179 174.543 86.3036C174.376 86.6885 174.094 87.0031 173.698 87.2473C173.311 87.4908 172.807 87.6427 172.188 87.7031L168.52 88.0606L168.425 87.1056L171.978 86.7593C172.64 86.6948 173.127 86.5016 173.438 86.1799C173.758 85.8659 173.891 85.4415 173.838 84.9067C173.783 84.3549 173.558 83.9398 173.161 83.6613C172.766 83.3913 172.211 83.291 171.498 83.3605L168.085 83.6932L167.99 82.7382L174.358 82.1176Z" fill="white"/>
<path d="M170.989 90.2365C170.733 90.2877 170.52 90.3815 170.349 90.518C170.187 90.6545 170.063 90.8293 169.978 91.0426C169.893 91.2644 169.85 91.5203 169.85 91.8104C169.85 92.2625 169.935 92.6037 170.106 92.834C170.285 93.0729 170.507 93.1923 170.771 93.1923C170.993 93.1923 171.172 93.1198 171.309 92.9748C171.445 92.8383 171.556 92.6549 171.642 92.4246C171.735 92.1942 171.816 91.9383 171.885 91.6568C171.936 91.435 171.996 91.1962 172.064 90.9402C172.141 90.6843 172.243 90.4412 172.371 90.2109C172.499 89.9806 172.665 89.7929 172.87 89.6479C173.075 89.5028 173.343 89.4303 173.676 89.4303C174.043 89.4303 174.363 89.5284 174.636 89.7246C174.917 89.9294 175.135 90.2066 175.288 90.5564C175.442 90.9147 175.519 91.3241 175.519 91.7848C175.519 92.3137 175.404 92.7828 175.173 93.1923C174.943 93.6103 174.585 93.9004 174.098 94.0624L173.791 93.1667C174.013 93.107 174.184 92.9961 174.303 92.834C174.423 92.6805 174.504 92.5056 174.546 92.3094C174.589 92.1217 174.61 91.9341 174.61 91.7464C174.61 91.3625 174.533 91.0511 174.38 90.8123C174.235 90.582 174.013 90.4668 173.715 90.4668C173.552 90.4668 173.416 90.5052 173.305 90.582C173.203 90.6587 173.117 90.7654 173.049 90.9019C172.981 91.0383 172.921 91.2004 172.87 91.3881C172.827 91.5758 172.776 91.7805 172.716 92.0023C172.657 92.2497 172.58 92.5013 172.486 92.7573C172.401 93.0132 172.286 93.252 172.141 93.4738C172.004 93.6956 171.825 93.8748 171.603 94.0112C171.39 94.1563 171.121 94.2288 170.797 94.2288C170.422 94.2288 170.093 94.1264 169.812 93.9217C169.539 93.7169 169.326 93.4312 169.172 93.0644C169.018 92.7061 168.942 92.2881 168.942 91.8104C168.942 91.1535 169.087 90.6076 169.377 90.1725C169.675 89.746 170.11 89.4602 170.682 89.3152L170.989 90.2365Z" fill="white"/>
<path d="M176.313 107.494L177.088 109.29L176.279 109.548L175.869 107.629L174.745 109.259L174.087 108.699L175.497 107.334L173.529 107.129L173.692 106.313L175.596 106.845L174.806 105.059L175.658 104.783L176.068 106.703L177.164 105.08L177.822 105.64L176.409 107.018L178.375 107.235L178.209 108.063L176.313 107.494Z" fill="white"/>
<path d="M170.956 124.028L170.571 124.948L163.696 118.176L164.052 117.326L166.083 119.334L172.918 119.342L172.513 120.31L166.939 120.238L170.956 124.028Z" fill="white"/>
<path d="M162.906 126.623C163.194 126.09 163.569 125.675 164.029 125.378C164.49 125.082 165 124.927 165.56 124.914C166.127 124.905 166.708 125.058 167.304 125.374C167.907 125.693 168.363 126.088 168.67 126.559C168.974 127.038 169.129 127.55 169.136 128.094C169.139 128.645 168.996 129.188 168.708 129.72C168.42 130.253 168.046 130.668 167.585 130.965C167.12 131.269 166.604 131.425 166.037 131.434C165.474 131.455 164.894 131.307 164.298 130.992C163.695 130.673 163.242 130.274 162.938 129.795C162.634 129.316 162.481 128.801 162.479 128.249C162.476 127.698 162.619 127.156 162.906 126.623ZM163.716 127.036C163.537 127.367 163.441 127.716 163.426 128.084C163.418 128.457 163.521 128.815 163.733 129.159C163.948 129.514 164.297 129.819 164.78 130.074C165.27 130.334 165.718 130.455 166.124 130.438C166.531 130.422 166.885 130.305 167.186 130.088C167.491 129.882 167.733 129.615 167.911 129.284C168.09 128.954 168.18 128.607 168.184 128.242C168.194 127.881 168.09 127.526 167.871 127.179C167.655 126.842 167.305 126.547 166.823 126.291C166.333 126.032 165.886 125.907 165.484 125.916C165.082 125.925 164.73 126.029 164.429 126.227C164.132 126.436 163.894 126.706 163.716 127.036Z" fill="white"/>
<path d="M158.315 134.934L158.802 134.213L159.606 134.668C159.445 134.326 159.384 133.968 159.42 133.594C159.464 133.224 159.61 132.855 159.858 132.488C160.135 132.078 160.462 131.777 160.838 131.586C161.214 131.395 161.63 131.328 162.086 131.384C162.537 131.447 163.023 131.65 163.542 131.994L166.638 134.04L166.108 134.825L163.098 132.835C162.55 132.473 162.055 132.314 161.613 132.359C161.173 132.416 160.803 132.667 160.502 133.113C160.196 133.565 160.101 134.019 160.216 134.473C160.334 134.939 160.691 135.37 161.289 135.765L164.182 137.678L163.652 138.463L158.315 134.934Z" fill="white"/>
<path d="M151.734 143.842L152.353 143.23L158.328 146.317L157.637 147.001L152.889 144.373L155.418 149.197L154.799 149.809L149.951 147.298L152.607 151.978L151.934 152.644L148.805 146.74L149.433 146.119L154.108 148.477L151.734 143.842Z" fill="white"/>
<path d="M152.612 152.411L151.927 152.967L151.291 152.28C151.305 152.565 151.272 152.845 151.19 153.121C151.101 153.401 150.963 153.656 150.776 153.885C150.588 154.126 150.346 154.328 150.049 154.492L149.437 153.753C149.758 153.58 150.01 153.375 150.192 153.14C150.367 152.91 150.474 152.658 150.513 152.385C150.552 152.111 150.522 151.828 150.423 151.535C150.329 151.248 150.163 150.96 149.923 150.671L147.783 148.091L148.528 147.486L152.612 152.411Z" fill="white"/>
<path d="M146.664 157.612L145.874 158.134L142.294 152.832L143.084 152.31L146.664 157.612ZM146.975 158.941C147.138 158.832 147.309 158.796 147.488 158.832C147.666 158.867 147.808 158.962 147.913 159.118C148.023 159.281 148.06 159.45 148.025 159.627C147.99 159.803 147.89 159.946 147.727 160.054C147.577 160.153 147.413 160.185 147.235 160.149C147.05 160.118 146.902 160.022 146.792 159.859C146.687 159.704 146.656 159.535 146.698 159.354C146.733 159.177 146.825 159.039 146.975 158.941Z" fill="white"/>
<path d="M140.206 162.208L141.058 163.784L140.209 164.232L139.358 162.656L137.854 163.452L137.428 162.664L138.932 161.868L137.296 158.84C137.11 158.494 136.902 158.281 136.674 158.199C136.438 158.121 136.199 158.127 135.956 158.217C135.706 158.31 135.465 158.438 135.233 158.6L134.837 157.868C135.095 157.645 135.375 157.472 135.678 157.351C135.973 157.233 136.27 157.182 136.569 157.198C136.865 157.225 137.15 157.33 137.423 157.513C137.689 157.701 137.93 157.993 138.145 158.391L139.781 161.419L140.629 160.971L141.055 161.759L140.206 162.208Z" fill="white"/>
<path d="M128.903 160.936C129.455 160.71 130.004 160.641 130.551 160.731C131.089 160.824 131.577 161.052 132.016 161.416C132.456 161.78 132.8 162.261 133.051 162.859C133.291 163.434 133.383 163.995 133.326 164.544C133.269 165.093 133.08 165.58 132.759 166.007C132.442 166.441 132.011 166.77 131.466 166.993C130.929 167.213 130.402 167.291 129.885 167.227C129.36 167.165 128.892 166.974 128.48 166.654C128.069 166.334 127.759 165.904 127.551 165.362C127.515 165.276 127.481 165.183 127.449 165.086C127.418 164.988 127.383 164.883 127.344 164.769L131.926 162.891C131.756 162.528 131.528 162.238 131.244 162.023C130.96 161.808 130.649 161.672 130.311 161.617C129.969 161.573 129.624 161.622 129.277 161.764C128.819 161.952 128.469 162.197 128.226 162.5C127.974 162.806 127.845 163.149 127.838 163.53L126.94 163.538C126.969 162.945 127.153 162.423 127.491 161.971C127.832 161.527 128.303 161.182 128.903 160.936ZM128.601 165.153C128.735 165.495 128.935 165.763 129.201 165.958C129.46 166.156 129.759 166.273 130.098 166.31C130.437 166.346 130.788 166.29 131.151 166.141C131.466 166.011 131.723 165.819 131.921 165.562C132.119 165.306 132.249 165.009 132.31 164.67C132.367 164.342 132.343 164.007 132.236 163.663L128.601 165.153Z" fill="white"/>
<path d="M119.145 171.715L119.498 173.471L118.556 173.656L118.203 171.9L116.533 172.229L116.357 171.351L118.027 171.022L117.348 167.647C117.271 167.263 117.135 166.998 116.941 166.854C116.738 166.711 116.508 166.648 116.25 166.664C115.984 166.681 115.716 166.734 115.446 166.822L115.283 166.006C115.594 165.867 115.912 165.783 116.237 165.753C116.553 165.726 116.852 165.763 117.133 165.864C117.408 165.975 117.649 166.158 117.857 166.413C118.056 166.669 118.201 167.019 118.29 167.462L118.968 170.837L119.91 170.651L120.086 171.529L119.145 171.715Z" fill="white"/>
<path d="M112.298 176.236L111.343 176.329L110.978 172.662C110.805 172.988 110.552 173.248 110.22 173.443C109.889 173.647 109.506 173.77 109.073 173.812C108.606 173.858 108.18 173.792 107.794 173.616C107.407 173.439 107.092 173.153 106.847 172.756C106.593 172.361 106.435 171.854 106.374 171.234L106.011 167.592L107.03 167.493L107.381 171.02C107.447 171.682 107.637 172.174 107.952 172.494C108.268 172.824 108.693 172.962 109.228 172.91C109.78 172.856 110.194 172.627 110.471 172.223C110.74 171.82 110.838 171.262 110.767 170.549L110.43 167.162L111.386 167.069L112.298 176.236Z" fill="white"/>
<path d="M101.664 168.012C102.261 168.012 102.794 168.157 103.263 168.447C103.724 168.737 104.086 169.134 104.351 169.637C104.615 170.14 104.747 170.716 104.747 171.365C104.747 171.987 104.615 172.542 104.351 173.028C104.086 173.514 103.724 173.894 103.263 174.167C102.802 174.448 102.278 174.589 101.689 174.589C101.109 174.589 100.593 174.461 100.141 174.205C99.6802 173.949 99.3219 173.595 99.066 173.143C98.8101 172.691 98.6906 172.175 98.7077 171.595C98.7077 171.501 98.712 171.403 98.7205 171.301C98.729 171.198 98.7375 171.087 98.7461 170.968H103.698C103.681 170.567 103.583 170.213 103.404 169.906C103.225 169.599 102.99 169.356 102.7 169.176C102.401 169.006 102.064 168.92 101.689 168.92C101.194 168.92 100.776 169.014 100.435 169.202C100.085 169.39 99.8337 169.658 99.6802 170.008L98.8484 169.675C99.1044 169.138 99.4754 168.724 99.9617 168.434C100.448 168.153 101.015 168.012 101.664 168.012ZM99.7569 171.8C99.7484 172.166 99.8295 172.491 100 172.772C100.162 173.054 100.392 173.275 100.691 173.437C100.99 173.6 101.335 173.681 101.728 173.681C102.069 173.681 102.38 173.6 102.662 173.437C102.943 173.275 103.178 173.049 103.365 172.759C103.545 172.478 103.651 172.158 103.685 171.8H99.7569Z" fill="white"/>
<path d="M88.5154 174.301L87.5807 168.691L84.5354 173.517L83.5436 173.322L87.3154 167.544L88.2947 167.736L89.5198 174.498L88.5154 174.301Z" fill="white"/>
<path d="M81.0456 173.134L80.1387 172.861L82.0139 166.744L82.9208 167.017L81.0456 173.134ZM80.2049 174.217C80.3928 174.274 80.5293 174.381 80.6143 174.541C80.6994 174.7 80.7144 174.869 80.6594 175.048C80.6019 175.236 80.4931 175.373 80.3331 175.458C80.173 175.544 79.999 175.558 79.8111 175.502C79.6395 175.45 79.5112 175.345 79.4262 175.186C79.3329 175.024 79.3151 174.85 79.3726 174.662C79.4276 174.483 79.5392 174.351 79.7074 174.268C79.8675 174.183 80.0333 174.166 80.2049 174.217Z" fill="white"/>
<path d="M74.957 166.976C75.0085 166.721 75.004 166.489 74.9436 166.279C74.8799 166.078 74.7658 165.898 74.6014 165.738C74.4291 165.575 74.2088 165.439 73.9404 165.329C73.5221 165.158 73.1734 165.107 72.8944 165.177C72.6043 165.251 72.4081 165.411 72.306 165.655C72.2204 165.859 72.2183 166.052 72.2998 166.233C72.3733 166.411 72.5002 166.582 72.6804 166.749C72.8573 166.922 73.0628 167.094 73.2969 167.264C73.4824 167.395 73.6803 167.541 73.8908 167.701C74.0979 167.869 74.2834 168.056 74.4471 168.261C74.6108 168.466 74.7202 168.691 74.7753 168.935C74.8305 169.179 74.7938 169.454 74.6654 169.761C74.5237 170.099 74.3094 170.357 74.0225 170.535C73.7243 170.717 73.3838 170.812 73.0009 170.821C72.6101 170.827 72.2016 170.742 71.7753 170.568C71.286 170.367 70.8963 170.083 70.6064 169.715C70.3085 169.344 70.1785 168.904 70.2163 168.394L71.1636 168.45C71.1333 168.677 71.17 168.877 71.2739 169.048C71.3698 169.217 71.5003 169.358 71.6654 169.472C71.8226 169.582 71.988 169.673 72.1617 169.744C72.5169 169.89 72.8346 169.937 73.1149 169.886C73.384 169.84 73.5762 169.679 73.6915 169.403C73.7541 169.254 73.7713 169.113 73.7431 168.982C73.7115 168.858 73.6458 168.739 73.5459 168.624C73.4459 168.51 73.319 168.393 73.1651 168.275C73.0079 168.164 72.8383 168.039 72.6561 167.9C72.4503 167.751 72.247 167.585 72.0465 167.401C71.8426 167.226 71.6661 167.029 71.5169 166.811C71.3643 166.601 71.2677 166.368 71.2271 166.111C71.1753 165.86 71.2119 165.584 71.3371 165.285C71.482 164.939 71.7035 164.675 72.0017 164.493C72.2965 164.319 72.6433 164.23 73.042 164.228C73.4328 164.222 73.8492 164.31 74.2912 164.491C74.899 164.74 75.3482 165.081 75.6387 165.513C75.9181 165.951 76.0146 166.46 75.9281 167.043L74.957 166.976Z" fill="white"/>
<path d="M66.278 168.544L65.441 168.101L68.4817 162.472L69.3187 162.915L66.278 168.544ZM65.2401 169.443C65.4135 169.534 65.5264 169.666 65.5787 169.839C65.631 170.011 65.6125 170.18 65.5234 170.345C65.4301 170.518 65.2965 170.63 65.1226 170.683C64.9487 170.736 64.775 170.716 64.6016 170.625C64.4432 170.541 64.3379 170.413 64.2856 170.24C64.2257 170.064 64.2424 169.89 64.3357 169.717C64.4249 169.552 64.5602 169.445 64.7417 169.396C64.9156 169.343 65.0817 169.359 65.2401 169.443Z" fill="white"/>
<path d="M60.8021 158.397C61.3073 158.731 61.6852 159.14 61.9356 159.622C62.1861 160.105 62.2892 160.623 62.2448 161.177C62.1956 161.737 61.9825 162.297 61.6053 162.855C61.2234 163.421 60.7802 163.833 60.2756 164.093C59.7639 164.348 59.2348 164.453 58.6884 164.409C58.1348 164.359 57.6054 164.168 57.1002 163.834C56.5949 163.5 56.2171 163.092 55.9666 162.609C55.709 162.122 55.6048 161.598 55.6539 161.037C55.6912 160.479 55.8984 159.92 56.2755 159.362C56.6574 158.796 57.1042 158.386 57.6159 158.131C58.1276 157.876 58.6603 157.774 59.2139 157.823C59.7675 157.872 60.2969 158.063 60.8021 158.397ZM60.3043 159.157C59.9912 158.95 59.6506 158.822 59.2824 158.773C58.9094 158.731 58.5396 158.798 58.1731 158.975C57.7947 159.155 57.4528 159.47 57.1473 159.923C56.837 160.382 56.6694 160.814 56.6444 161.216C56.6195 161.619 56.7004 161.979 56.8872 162.297C57.0621 162.617 57.3061 162.881 57.6192 163.088C57.9323 163.295 58.2718 163.417 58.6377 163.455C58.9988 163.499 59.365 163.429 59.7363 163.245C60.0956 163.064 60.4281 162.747 60.7336 162.294C61.0439 161.835 61.2151 161.406 61.2472 161.008C61.2792 160.61 61.2113 160.253 61.0435 159.937C60.8638 159.624 60.6174 159.364 60.3043 159.157Z" fill="white"/>
<path d="M52.8582 161.309L52.1729 160.752L52.7131 160.021C52.3527 160.135 51.9889 160.152 51.6217 160.074C51.2491 160.002 50.8906 159.826 50.5463 159.547C50.1688 159.24 49.9058 158.889 49.7572 158.494C49.6031 158.105 49.5801 157.685 49.688 157.234C49.7904 156.79 50.0404 156.328 50.438 155.849L52.7905 153.012L53.5355 153.617L51.2565 156.365C50.8317 156.878 50.623 157.356 50.6303 157.802C50.6256 158.249 50.8318 158.641 51.249 158.98C51.6794 159.33 52.1342 159.463 52.6134 159.379C53.0859 159.291 53.5509 158.97 54.0084 158.419L56.1975 155.779L56.9425 156.384L52.8582 161.309Z" fill="white"/>
<path d="M43.3795 144.391L42.5345 145.176C42.9535 145.066 43.3607 145.076 43.7561 145.206C44.1449 145.34 44.5109 145.615 44.854 146.028C45.148 146.383 45.3422 146.731 45.4366 147.072C45.531 147.413 45.5327 147.735 45.4418 148.04C45.3388 148.343 45.1449 148.611 44.8602 148.842C44.443 149.181 43.974 149.303 43.4532 149.21C42.9257 149.122 42.3899 148.81 41.8456 148.274L40.4188 146.894L40.0215 147.217C39.7433 147.443 39.6059 147.724 39.6092 148.062C39.6058 148.406 39.7485 148.752 40.0371 149.1C40.3203 149.441 40.6366 149.662 40.9861 149.763C41.3302 149.857 41.6866 149.826 42.0554 149.669L42.3725 150.533C41.8265 150.756 41.2867 150.793 40.7531 150.644C40.214 150.489 39.7348 150.158 39.3155 149.653C38.8308 149.068 38.6074 148.491 38.6452 147.922C38.6709 147.352 38.942 146.857 39.4585 146.438L42.8158 143.711L43.3795 144.391ZM41.0545 146.378L42.4994 147.759C42.8114 148.055 43.1111 148.229 43.3983 148.282C43.679 148.34 43.9352 148.274 44.167 148.086C44.3987 147.898 44.5161 147.665 44.519 147.388C44.5165 147.105 44.3845 146.805 44.1231 146.49C43.8236 146.129 43.5057 145.893 43.1694 145.781C42.8331 145.67 42.4989 145.661 42.1668 145.755C41.8226 145.847 41.5048 146.012 41.2134 146.249L41.0545 146.378Z" fill="white"/>
<path d="M35.8091 145.781L35.315 145.049L36.0442 144.506C35.6664 144.51 35.3132 144.422 34.9847 144.24C34.6491 144.063 34.3572 143.791 34.1089 143.423C33.8368 143.02 33.6871 142.608 33.6597 142.186C33.6252 141.77 33.725 141.361 33.9591 140.961C34.1861 140.565 34.5593 140.196 35.0788 139.852L38.1528 137.82L38.6898 138.615L35.7119 140.584C35.1569 140.951 34.8182 141.349 34.6959 141.777C34.5616 142.204 34.6449 142.639 34.9457 143.085C35.2559 143.544 35.6524 143.804 36.135 143.863C36.6128 143.915 37.1506 143.744 37.7483 143.349L40.6089 141.457L41.1459 142.252L35.8091 145.781Z" fill="white"/>
<path d="M30.0288 134.638L30.0888 134.722L26.4466 136.649L25.9905 135.804L34.1345 131.497L34.5541 132.273L33.5326 132.886C33.9425 132.891 34.3501 133.009 34.7553 133.238C35.1564 133.46 35.4928 133.823 35.7644 134.326C36.0441 134.844 36.1725 135.359 36.1496 135.873C36.1151 136.384 35.9379 136.864 35.6181 137.312C35.2943 137.754 34.8382 138.13 34.2501 138.441C33.6619 138.752 33.0961 138.917 32.5528 138.934C31.9979 138.947 31.4964 138.827 31.0483 138.572C30.5962 138.309 30.2302 137.919 29.9505 137.401C29.6627 136.868 29.5403 136.363 29.5836 135.887C29.6268 135.41 29.7752 134.994 30.0288 134.638ZM33.7575 137.529C34.406 137.186 34.8333 136.748 35.0395 136.214C35.2382 135.685 35.1834 135.135 34.8753 134.564C34.6848 134.212 34.4316 133.94 34.1157 133.75C33.7998 133.56 33.4409 133.47 33.039 133.48C32.6331 133.483 32.2077 133.601 31.7628 133.837C31.3179 134.072 30.9855 134.354 30.7655 134.683C30.5339 135.008 30.4102 135.353 30.3943 135.719C30.3709 136.088 30.4544 136.449 30.645 136.802C30.949 137.365 31.3846 137.713 31.9516 137.848C32.507 137.979 33.109 137.872 33.7575 137.529Z" fill="white"/>
<path d="M29.5208 127.331L29.7758 128.163L24.2368 131.923L23.9518 130.993L28.5085 128.089L23.0367 128.008L22.7817 127.176L27.2812 124.129L21.8779 124.228L21.6003 123.322L28.3132 123.391L28.572 124.236L24.2893 127.204L29.5208 127.331Z" fill="white"/>
<path d="M27.3257 114.893C27.4434 115.478 27.4062 116.029 27.2141 116.545C27.0203 117.053 26.7025 117.485 26.2608 117.841C25.8191 118.198 25.2802 118.438 24.6441 118.564C24.0331 118.684 23.463 118.661 22.9338 118.496C22.4046 118.331 21.9606 118.049 21.602 117.65C21.235 117.252 20.9935 116.765 20.8775 116.188C20.7632 115.619 20.7871 115.089 20.9491 114.596C21.1094 114.095 21.3861 113.675 21.7793 113.337C22.1725 112.999 22.6553 112.782 23.2278 112.687C23.3199 112.669 23.417 112.654 23.5191 112.643C23.6213 112.631 23.7317 112.618 23.8506 112.604L24.8265 117.458C25.2165 117.364 25.5445 117.2 25.8106 116.965C26.0766 116.73 26.2689 116.453 26.3875 116.134C26.4961 115.808 26.5134 115.461 26.4394 115.093C26.3419 114.608 26.1674 114.217 25.9161 113.918C25.663 113.612 25.3497 113.417 24.9763 113.334L25.1388 112.454C25.7166 112.601 26.1956 112.885 26.576 113.306C26.9481 113.728 27.198 114.257 27.3257 114.893ZM23.2337 113.755C22.8722 113.818 22.5701 113.96 22.3275 114.181C22.0832 114.395 21.911 114.663 21.8108 114.987C21.7106 115.311 21.6992 115.666 21.7765 116.05C21.8438 116.385 21.9846 116.675 22.1991 116.919C22.4136 117.164 22.6817 117.35 23.0032 117.478C23.3148 117.599 23.6496 117.642 24.0079 117.606L23.2337 113.755Z" fill="white"/>
<path d="M19.9712 111.732L17.0959 111.266L16.9818 110.12L19.8989 111.006L19.9712 111.732Z" fill="white"/>
<path d="M15.787 103.726V102.766H25V103.726H15.787Z" fill="white"/>
<path d="M15.4808 95.7899L15.5759 94.8349L24.7454 95.7286L24.6504 96.6836L15.4808 95.7899Z" fill="white"/>
<path d="M18.4825 86.1139L18.7412 85.2698L19.6424 85.4735C19.4032 85.2058 19.2441 84.8953 19.1651 84.542C19.0803 84.1781 19.103 83.7841 19.233 83.36C19.3655 82.9277 19.5917 82.5681 19.9117 82.2812C20.2259 81.9836 20.6173 81.7983 21.0858 81.7252C20.7267 81.4125 20.5037 81.0339 20.4169 80.5892C20.3302 80.1446 20.3581 79.6898 20.5006 79.2249C20.6406 78.7682 20.8665 78.3951 21.1783 78.1057C21.4819 77.8139 21.8638 77.6302 22.3242 77.5546C22.7764 77.4766 23.3007 77.5271 23.8971 77.7062L27.4267 78.7657L27.1455 79.6832L23.7261 78.6568C23.0889 78.4655 22.5643 78.4595 22.1525 78.6387C21.735 78.8072 21.4487 79.1444 21.2937 79.65C21.1362 80.1639 21.1909 80.6256 21.4579 81.0353C21.7168 81.4425 22.1934 81.7504 22.8879 81.9589L26.1479 82.9374L25.8666 83.855L22.4473 82.8286C21.81 82.6373 21.2879 82.6231 20.8811 82.786C20.4661 82.9464 20.1811 83.2794 20.0261 83.7851C19.8686 84.2989 19.9246 84.7566 20.1941 85.1581C20.4579 85.5491 20.9371 85.8488 21.6315 86.0572L24.8915 87.0358L24.6103 87.9533L18.4825 86.1139Z" fill="white"/>
<path d="M29.3507 72.1431L28.2555 71.7772C28.5494 72.0912 28.7314 72.4516 28.8016 72.8584C28.8639 73.2619 28.7913 73.7115 28.5838 74.2073C28.4059 74.6322 28.1873 74.9667 27.9279 75.2107C27.6686 75.4547 27.382 75.6092 27.0681 75.6742C26.7496 75.728 26.4207 75.6854 26.0813 75.5463C25.584 75.3424 25.2549 74.9909 25.094 74.4916C24.9252 73.9891 24.9518 73.3732 25.174 72.6437L25.7336 70.7435L25.26 70.5494C24.9285 70.4135 24.613 70.4271 24.3135 70.5901C24.0062 70.7499 23.7652 71.0384 23.5907 71.4554C23.4194 71.8646 23.3708 72.2457 23.445 72.5988C23.5224 72.944 23.7173 73.2405 24.0297 73.4884L23.4096 74.1746C22.9545 73.8037 22.6682 73.3498 22.5508 72.8131C22.4366 72.2684 22.5063 71.6932 22.7599 71.0873C23.0531 70.3869 23.4619 69.9184 23.9864 69.6816C24.5063 69.4338 25.0741 69.436 25.6897 69.6884L29.6916 71.3287L29.3507 72.1431ZM26.4913 71.0541L25.9386 72.971C25.8213 73.3838 25.8066 73.7281 25.8946 74.0039C25.9747 74.2764 26.1529 74.4693 26.4292 74.5826C26.7055 74.6958 26.9676 74.688 27.2158 74.5592C27.4671 74.4226 27.6719 74.1654 27.83 73.7877C28.0112 73.3549 28.0726 72.9652 28.0142 72.6186C27.9558 72.272 27.807 71.9759 27.5676 71.7303C27.3237 71.4736 27.0281 71.2741 26.6808 71.1317L26.4913 71.0541Z" fill="white"/>
<path d="M22.0725 64.9049L22.5347 64.0493L27.4776 66.6637L27.7573 66.1458L26.5009 62.6297L27.1455 61.4363L28.5381 65.589L32.8071 64.4164L32.1564 65.6211L28.4926 66.5347L28.2128 67.0526L30.6786 68.3568L30.2165 69.2125L22.0725 64.9049Z" fill="white"/>
<path d="M35.3349 60.6634C35.0008 61.1583 34.5814 61.5201 34.0769 61.749C33.5772 61.9708 33.0435 62.0525 32.4756 61.9941C31.9078 61.9356 31.3535 61.7276 30.8127 61.3701C30.2933 61.0266 29.9047 60.6112 29.6471 60.1239C29.3895 59.6365 29.2757 59.1267 29.3058 58.5944C29.3288 58.0573 29.505 57.5449 29.8343 57.0571C30.159 56.5763 30.5545 56.2192 31.021 55.9856C31.4922 55.745 31.9881 55.6433 32.5084 55.6806C33.0287 55.7179 33.5261 55.9036 34.0004 56.2376C34.0787 56.2894 34.1581 56.347 34.2387 56.4106C34.3194 56.4741 34.4071 56.5423 34.5019 56.6153L31.7308 60.7193C32.0748 60.9263 32.425 61.0402 32.7814 61.0611C33.1378 61.082 33.4719 61.0217 33.7836 60.8801C34.093 60.7268 34.3527 60.4946 34.5628 60.1835C34.8397 59.7735 34.9953 59.3753 35.0297 58.989C35.0689 58.5956 34.9856 58.2389 34.7797 57.9187L35.5227 57.4129C35.8278 57.9214 35.9652 58.4571 35.9351 59.0201C35.8978 59.5783 35.6977 60.1261 35.3349 60.6634ZM33.2425 56.9943C32.9413 56.7849 32.6255 56.6733 32.2952 56.6594C31.9697 56.6385 31.6558 56.707 31.3535 56.8651C31.0512 57.0231 30.7903 57.2648 30.5707 57.59C30.3797 57.8728 30.2731 58.1755 30.2508 58.4982C30.2284 58.8209 30.2857 59.14 30.4226 59.4555C30.5572 59.7592 30.7644 60.024 31.0441 60.2499L33.2425 56.9943Z" fill="white"/>
<path d="M36.7875 46.5264L37.4606 45.8604L42.0083 50.3606L41.3353 51.0266L36.7875 46.5264ZM36.2236 45.2844C36.0842 45.4224 35.9235 45.4914 35.7416 45.4914C35.5597 45.4914 35.402 45.4254 35.2686 45.2934C35.1291 45.1554 35.0594 44.9964 35.0594 44.8164C35.0594 44.6364 35.1291 44.4773 35.2686 44.3393C35.3959 44.2133 35.5506 44.1503 35.7325 44.1503C35.9204 44.1443 36.0842 44.2103 36.2236 44.3483C36.357 44.4803 36.4207 44.6394 36.4146 44.8254C36.4146 45.0054 36.351 45.1584 36.2236 45.2844Z" fill="white"/>
<path d="M42.2214 40.7727L41.0778 39.3938L41.8228 38.7888L42.9664 40.1677L44.2874 39.0948L44.8592 39.7843L43.5382 40.8571L45.7355 43.5066C45.986 43.8086 46.2313 43.9775 46.4715 44.0132C46.7183 44.0436 46.9519 43.9912 47.1724 43.8561C47.3994 43.7157 47.6113 43.5436 47.8081 43.3399L48.339 43.9801C48.1298 44.2489 47.8884 44.4724 47.615 44.6505C47.3482 44.8232 47.0665 44.9311 46.7698 44.9742C46.4743 45.0054 46.1744 44.9578 45.87 44.8314C45.5723 44.6995 45.2791 44.4596 44.9905 44.1116L42.7932 41.4621L42.0482 42.0671L41.4764 41.3777L42.2214 40.7727Z" fill="white"/>
<path d="M53.7333 35.5127L53.8177 35.4536L55.6542 38.8536L54.8059 39.3023L50.549 31.4214L51.3295 31.0086L51.9516 32.0257C51.9547 31.6188 52.0672 31.2167 52.289 30.8196C52.5107 30.4224 52.878 30.0882 53.3907 29.817C53.8809 29.5578 54.3869 29.4445 54.9087 29.4773C55.4265 29.5026 55.9161 29.6731 56.3775 29.9887C56.8348 30.2969 57.2236 30.7474 57.5439 31.3404C57.8601 31.9258 58.0264 32.494 58.0429 33.045C58.0629 33.5845 57.9416 34.0781 57.6793 34.5257C57.4244 34.9692 57.0368 35.3286 56.5165 35.6038C55.9736 35.891 55.4621 36.012 54.982 35.9668C54.5019 35.9216 54.0857 35.7702 53.7333 35.5127ZM56.6277 31.825C56.279 31.1795 55.8337 30.7589 55.2916 30.5631C54.7531 30.3558 54.201 30.4017 53.6355 30.7008C53.281 30.8883 53.0052 31.1404 52.8078 31.4571C52.618 31.7698 52.529 32.1256 52.541 32.5246C52.5529 32.9236 52.6784 33.3445 52.9176 33.7873C53.1528 34.2227 53.4347 34.5561 53.7633 34.7875C54.0919 35.019 54.4424 35.1473 54.8146 35.1723C55.1904 35.1859 55.5554 35.0989 55.9099 34.9115C56.4754 34.6123 56.8227 34.1874 56.9518 33.6366C57.0844 33.0743 56.9763 32.4705 56.6277 31.825Z" fill="white"/>
<path d="M56.144 24.9472L57.032 24.5832L60.5894 33.0817L59.7014 33.4457L56.144 24.9472Z" fill="white"/>
<path d="M69.9686 29.2922L69.5575 28.2132C69.501 28.6399 69.3377 29.0095 69.0677 29.3221C68.7952 29.6266 68.4016 29.8561 67.8869 30.0106C67.4457 30.143 67.0486 30.1865 66.6956 30.1411C66.3426 30.0956 66.0416 29.9722 65.7925 29.7709C65.5491 29.5589 65.3737 29.2776 65.2661 28.9269C65.1086 28.4131 65.1719 27.9354 65.4559 27.4939C65.7374 27.0442 66.2305 26.6736 66.9351 26.3819L68.7587 25.6074L68.6087 25.118C68.5037 24.7755 68.2933 24.5403 67.9775 24.4124C67.6592 24.2764 67.2836 24.2733 66.8505 24.4033C66.4257 24.5309 66.1003 24.7354 65.8743 25.017C65.6565 25.2961 65.5508 25.6351 65.5571 26.0341L64.6337 25.9906C64.6321 25.4033 64.8015 24.8937 65.1421 24.4619C65.4908 24.0277 65.9797 23.7162 66.6088 23.5274C67.336 23.3091 67.9572 23.3274 68.4726 23.5824C68.9936 23.8268 69.3516 24.2671 69.5466 24.9033L70.8142 29.0383L69.9686 29.2922ZM68.9988 26.3903L67.1666 27.1808C66.7731 27.3523 66.4976 27.5597 66.3402 27.8029C66.1803 28.038 66.1441 28.2982 66.2316 28.5837C66.3191 28.8691 66.4912 29.0668 66.748 29.1768C67.0129 29.2843 67.3415 29.2792 67.7337 29.1615C68.183 29.0266 68.5232 28.8265 68.7542 28.5612C68.9851 28.296 69.1197 27.9928 69.1579 27.6518C69.2018 27.3002 69.1688 26.9449 69.0588 26.5861L68.9988 26.3903Z" fill="white"/>
<path d="M73.2122 21.7649L74.1413 21.582L75.4021 27.8544L74.473 28.0373L73.2122 21.7649ZM73.4371 20.4165C73.2446 20.4544 73.073 20.4229 72.9222 20.3222C72.7714 20.2215 72.6775 20.0791 72.6406 19.8951C72.6019 19.7027 72.6327 19.5315 72.7331 19.3813C72.8334 19.2312 72.9798 19.1371 73.1723 19.0992C73.3481 19.0646 73.5114 19.0977 73.6621 19.1985C73.8213 19.2975 73.9202 19.4433 73.9588 19.6356C73.9958 19.8196 73.96 19.9875 73.8513 20.1393C73.7509 20.2895 73.6129 20.3819 73.4371 20.4165Z" fill="white"/>
<path d="M80.5511 20.0102L81.4298 19.9246L81.5708 20.8236C81.7433 20.4897 81.9866 20.2217 82.3009 20.0197C82.6143 19.8091 82.9917 19.6823 83.4332 19.6393C83.9171 19.5921 84.3522 19.6569 84.7384 19.8335C85.1238 20.0017 85.439 20.2838 85.6842 20.6799C85.9285 21.0675 86.0815 21.5711 86.1432 22.1908L86.5082 25.8578L85.553 25.9509L85.1995 22.3984C85.1336 21.7363 84.9394 21.2496 84.6169 20.9382C84.3021 20.6174 83.8772 20.4831 83.3423 20.5353C82.7905 20.5891 82.3756 20.8138 82.0978 21.2094C81.8285 21.6042 81.7293 22.1581 81.8003 22.8712L82.1399 26.2836L81.1848 26.3767L80.5511 20.0102Z" fill="white"/>
<path d="M74.5222 120.384C74.2811 120.643 74.2961 121.049 74.5556 121.29C74.8152 121.531 75.221 121.516 75.4621 121.257L74.5222 120.384ZM120.734 72.2463C120.721 71.8923 120.424 71.6159 120.07 71.6289L114.301 71.8414C113.947 71.8545 113.67 72.152 113.683 72.506C113.696 72.86 113.994 73.1364 114.348 73.1234L119.476 72.9345L119.665 78.0624C119.678 78.4165 119.975 78.6929 120.329 78.6798C120.683 78.6668 120.96 78.3692 120.947 78.0152L120.734 72.2463ZM74.9922 120.82L75.4621 121.257L120.563 72.7065L120.093 72.2699L119.623 71.8334L74.5222 120.384L74.9922 120.82Z" fill="white"/>
</svg>
