<svg width="262" height="262" viewBox="0 0 262 262" fill="none" xmlns="http://www.w3.org/2000/svg">
<path d="M136.898 24.7966H138.508L133.469 38.0547H131.727L126.765 24.7966H128.375L132.636 36.4448L136.898 24.7966Z" fill="#153443" fill-opacity="0.3"/>
<path d="M140.882 28.1987L142.277 28.3361L141.349 37.7606L139.954 37.6232L140.882 28.1987ZM141.784 26.3844C141.495 26.3559 141.266 26.2382 141.096 26.0311C140.926 25.8241 140.855 25.5823 140.882 25.3059C140.91 25.0169 141.028 24.7874 141.235 24.6175C141.442 24.4475 141.69 24.3768 141.979 24.4053C142.243 24.4313 142.46 24.5478 142.63 24.7548C142.812 24.9631 142.889 25.2118 142.861 25.5008C142.834 25.7773 142.71 25.9998 142.491 26.1685C142.284 26.3384 142.048 26.4104 141.784 26.3844Z" fill="#153443" fill-opacity="0.3"/>
<path d="M150.371 35.3613C150.371 35.7476 150.446 36.0843 150.595 36.3714C150.746 36.6461 150.964 36.8762 151.249 37.0616C151.546 37.2495 151.906 37.3853 152.327 37.469C152.983 37.5996 153.503 37.5743 153.887 37.3931C154.285 37.202 154.523 36.9145 154.599 36.5306C154.663 36.2086 154.609 35.9276 154.438 35.6876C154.28 35.4501 154.045 35.2361 153.736 35.0457C153.428 34.843 153.08 34.6515 152.691 34.4711C152.384 34.3327 152.055 34.1771 151.703 34.0041C151.353 33.8188 151.03 33.5999 150.733 33.3477C150.435 33.0954 150.211 32.7997 150.059 32.4606C149.908 32.1215 149.88 31.7105 149.976 31.2275C150.082 30.695 150.317 30.2589 150.681 29.9193C151.059 29.5697 151.525 29.334 152.077 29.2121C152.641 29.0926 153.258 29.0994 153.926 29.2324C154.694 29.3852 155.342 29.6878 155.87 30.1404C156.41 30.5955 156.728 31.1994 156.823 31.9521L155.434 32.1393C155.411 31.8 155.299 31.5203 155.099 31.3001C154.91 31.0824 154.68 30.9143 154.407 30.7957C154.147 30.6796 153.881 30.5944 153.608 30.5402C153.051 30.4294 152.577 30.4509 152.186 30.6049C151.81 30.7489 151.578 31.0376 151.492 31.4711C151.445 31.7064 151.462 31.9156 151.541 32.0988C151.623 32.2695 151.753 32.4242 151.932 32.5627C152.11 32.7011 152.328 32.8346 152.586 32.9631C152.846 33.0793 153.128 33.2127 153.433 33.3634C153.775 33.5215 154.118 33.7057 154.463 33.9158C154.809 34.1135 155.123 34.3497 155.403 34.6243C155.686 34.8865 155.894 35.1983 156.028 35.5597C156.177 35.9111 156.205 36.3222 156.111 36.7928C156.003 37.3377 155.759 37.7849 155.381 38.1345C155.005 38.4716 154.528 38.6987 153.951 38.8157C153.387 38.9351 152.758 38.9259 152.064 38.788C151.111 38.5983 150.36 38.2301 149.812 37.6834C149.279 37.1268 148.99 36.4127 148.945 35.5411L150.371 35.3613Z" fill="#153443" fill-opacity="0.3"/>
<path d="M161.34 30.4458L162.681 30.8527L159.932 39.9149L158.591 39.5081L161.34 30.4458ZM162.578 28.8423C162.3 28.758 162.098 28.5977 161.972 28.3615C161.846 28.1253 161.823 27.8743 161.904 27.6084C161.988 27.3305 162.148 27.1284 162.384 27.0022C162.621 26.8759 162.878 26.8549 163.156 26.9392C163.409 27.0162 163.599 27.1728 163.726 27.409C163.864 27.6489 163.891 27.9078 163.807 28.1857C163.726 28.4516 163.562 28.6458 163.313 28.7684C163.077 28.8946 162.832 28.9193 162.578 28.8423Z" fill="#153443" fill-opacity="0.3"/>
<path d="M169.844 44.044C169.016 43.7009 168.35 43.2132 167.847 42.581C167.343 41.9488 167.042 41.2229 166.945 40.4033C166.852 39.5721 166.996 38.6957 167.378 37.7741C167.764 36.8409 168.284 36.1133 168.938 35.5913C169.603 35.0741 170.337 34.7701 171.14 34.679C171.955 34.5928 172.776 34.7212 173.605 35.0643C174.433 35.4074 175.099 35.895 175.602 36.5273C176.117 37.1643 176.422 37.8985 176.515 38.7297C176.624 39.5541 176.488 40.4271 176.106 41.3487C175.72 42.2819 175.194 43.0071 174.529 43.5242C173.863 44.0414 173.123 44.3431 172.309 44.4293C171.494 44.5155 170.672 44.387 169.844 44.044ZM170.341 42.7943C170.855 43.0069 171.385 43.0967 171.931 43.0635C172.483 43.0186 172.998 42.815 173.476 42.4527C173.971 42.0835 174.372 41.5257 174.682 40.7791C174.996 40.0208 175.112 39.3445 175.03 38.7503C174.948 38.156 174.726 37.6539 174.363 37.2438C174.016 36.8268 173.586 36.5121 173.073 36.2995C172.559 36.0868 172.033 36.0054 171.493 36.0551C170.958 36.0931 170.449 36.2991 169.966 36.6731C169.499 37.0402 169.111 37.5971 168.802 38.3437C168.488 39.102 168.366 39.7758 168.436 40.3652C168.507 40.9547 168.709 41.4554 169.044 41.8675C169.396 42.2728 169.828 42.5817 170.341 42.7943Z" fill="#153443" fill-opacity="0.3"/>
<path d="M179.414 37.1634L180.566 37.7794L179.999 39.0011C180.487 38.7319 181.007 38.602 181.56 38.6115C182.12 38.6097 182.689 38.7636 183.268 39.0732C183.903 39.4124 184.385 39.8492 184.715 40.3836C185.051 40.9068 185.207 41.5126 185.182 42.2011C185.164 42.8785 184.937 43.6236 184.503 44.4366L181.932 49.2472L180.679 48.5776L183.17 43.9173C183.634 43.0487 183.796 42.2905 183.655 41.6427C183.532 40.9897 183.119 40.4757 182.418 40.1007C181.694 39.7138 180.998 39.6497 180.33 39.9083C179.673 40.1728 179.095 40.7728 178.595 41.7082L176.202 46.1848L174.949 45.5152L179.414 37.1634Z" fill="#153443" fill-opacity="0.3"/>
<path d="M189.322 49.4628C189.955 48.6917 190.659 48.0931 191.433 47.6669C192.215 47.231 193.024 46.9719 193.86 46.8896C194.713 46.8056 195.546 46.885 196.359 47.1279C197.182 47.3788 197.955 47.8006 198.677 48.3934C199.732 49.2585 200.454 50.2595 200.844 51.3963C201.244 52.5412 201.28 53.7308 200.953 54.9652L199.713 54.5356C199.881 53.8731 199.904 53.2384 199.781 52.6314C199.667 52.0147 199.439 51.436 199.099 50.8953C198.758 50.3546 198.33 49.872 197.812 49.4475C197.08 48.8467 196.285 48.472 195.427 48.3232C194.569 48.1744 193.713 48.2722 192.859 48.6165C192.014 48.9689 191.236 49.5794 190.523 50.4481C189.818 51.307 189.375 52.185 189.194 53.082C189.023 53.987 189.09 54.8507 189.395 55.6729C189.709 56.4854 190.231 57.192 190.963 57.7928C191.491 58.2253 192.061 58.5549 192.676 58.7815C193.29 59.0081 193.932 59.1019 194.601 59.0629C195.28 59.0319 195.953 58.849 196.619 58.5142L197.283 59.6466C196.038 60.3075 194.798 60.5642 193.563 60.4166C192.337 60.2593 191.182 59.7361 190.098 58.8469C189.376 58.2542 188.812 57.5786 188.405 56.8202C188.008 56.0697 187.768 55.268 187.684 54.415C187.609 53.57 187.706 52.7262 187.973 51.8835C188.247 51.031 188.697 50.2241 189.322 49.4628Z" fill="#153443" fill-opacity="0.3"/>
<path d="M203.101 56.4886L204.025 57.4127L203.101 58.4439C203.521 58.3814 203.94 58.3904 204.36 58.4707C204.789 58.56 205.186 58.7252 205.552 58.9663C205.936 59.2073 206.271 59.5332 206.557 59.9439L205.552 60.9484C205.248 60.5019 204.909 60.1627 204.534 59.9305C204.168 59.7073 203.78 59.5868 203.369 59.5689C202.958 59.5511 202.543 59.6359 202.124 59.8234C201.713 60.002 201.311 60.2877 200.918 60.6805L197.409 64.1894L196.405 63.1849L203.101 56.4886Z" fill="#153443" fill-opacity="0.3"/>
<path d="M204.479 72.6426C203.918 71.9594 203.583 71.2132 203.474 70.404C203.374 69.6046 203.487 68.8173 203.815 68.0421C204.142 67.2669 204.677 66.5749 205.419 65.9661C206.131 65.3814 206.89 65.012 207.695 64.858C208.499 64.704 209.274 64.7623 210.019 65.0331C210.774 65.2958 211.427 65.7639 211.98 66.4374C212.525 67.1011 212.863 67.8118 212.995 68.5694C213.134 69.3368 213.066 70.0792 212.789 70.7965C212.512 71.5139 212.033 72.1352 211.354 72.6603C211.246 72.7484 211.13 72.8357 211.005 72.922C210.88 73.0084 210.745 73.1028 210.6 73.2052L205.95 67.5391C205.507 67.9352 205.195 68.3798 205.011 68.8732C204.828 69.3665 204.77 69.8632 204.838 70.3633C204.923 70.8651 205.142 71.3308 205.494 71.7602C205.959 72.3264 206.459 72.7165 206.994 72.9307C207.537 73.1547 208.081 73.1903 208.625 73.0375L209.025 74.3016C208.17 74.5134 207.348 74.4773 206.56 74.1933C205.781 73.9013 205.087 73.3844 204.479 72.6426ZM210.603 71.2675C211.03 70.9329 211.325 70.5357 211.487 70.0762C211.657 69.6264 211.694 69.1546 211.6 68.6608C211.505 68.167 211.273 67.6956 210.904 67.2466C210.584 66.8561 210.199 66.576 209.749 66.4061C209.299 66.2362 208.82 66.18 208.312 66.2376C207.822 66.297 207.356 66.4754 206.914 66.7728L210.603 71.2675Z" fill="#153443" fill-opacity="0.3"/>
<path d="M212.95 81.3608L214.304 80.3193C213.674 80.4215 213.078 80.3486 212.518 80.1005C211.968 79.8454 211.472 79.3872 211.03 78.7258C210.651 78.1588 210.417 77.6163 210.329 77.098C210.241 76.5798 210.286 76.1018 210.464 75.6638C210.66 75.2294 210.984 74.8613 211.435 74.5597C212.097 74.1177 212.802 74.0032 213.552 74.216C214.312 74.4218 215.051 74.9604 215.77 75.8316L217.658 78.078L218.288 77.6571C218.729 77.3624 218.972 76.9647 219.017 76.4638C219.073 75.956 218.915 75.4239 218.543 74.8674C218.178 74.3215 217.747 73.949 217.249 73.7499C216.759 73.5613 216.232 73.5566 215.668 73.7358L215.331 72.4124C216.164 72.1593 216.961 72.1813 217.721 72.4782C218.488 72.7855 219.142 73.3434 219.682 74.1518C220.306 75.0862 220.549 75.972 220.41 76.8091C220.288 77.6497 219.818 78.3436 218.999 78.8908L213.676 82.4474L212.95 81.3608ZM216.65 78.7514L214.736 76.4998C214.322 76.017 213.909 75.7163 213.495 75.5976C213.093 75.472 212.707 75.5319 212.34 75.7774C211.972 76.023 211.766 76.3506 211.721 76.7604C211.683 77.1807 211.832 77.6428 212.169 78.1467C212.555 78.7242 212.986 79.1194 213.463 79.3326C213.939 79.5457 214.428 79.6065 214.928 79.5149C215.447 79.4268 215.937 79.2284 216.399 78.9198L216.65 78.7514Z" fill="#153443" fill-opacity="0.3"/>
<path d="M223.847 83.0857L226.297 82.0709L226.84 83.3833L224.39 84.398L225.354 86.7253L224.13 87.2327L223.166 84.9054L218.459 86.8551C217.922 87.0774 217.577 87.3501 217.424 87.6732C217.276 88.008 217.251 88.36 217.349 88.7293C217.452 89.1103 217.607 89.4836 217.813 89.8492L216.675 90.3203C216.382 89.9089 216.167 89.4718 216.03 89.0092C215.898 88.5583 215.864 88.1143 215.929 87.6774C216.011 87.2473 216.206 86.8451 216.516 86.4708C216.83 86.1082 217.297 85.7988 217.915 85.5427L222.622 83.593L222.078 82.2806L223.303 81.7733L223.847 83.0857Z" fill="#153443" fill-opacity="0.3"/>
<path d="M228.015 92.1514L228.422 93.4926L219.36 96.2416L218.953 94.9004L228.015 92.1514ZM230.036 92.2903C229.952 92.0124 229.973 91.7553 230.099 91.5191C230.226 91.2829 230.422 91.1245 230.687 91.0438C230.965 90.9595 231.222 90.9805 231.459 91.1068C231.695 91.233 231.855 91.4351 231.939 91.713C232.016 91.9668 231.992 92.2118 231.866 92.448C231.743 92.6963 231.543 92.8626 231.265 92.9469C230.999 93.0275 230.746 92.9987 230.506 92.8603C230.27 92.7341 230.113 92.5441 230.036 92.2903Z" fill="#153443" fill-opacity="0.3"/>
<path d="M222.048 106.195C221.874 105.316 221.909 104.491 222.155 103.721C222.401 102.952 222.838 102.298 223.465 101.762C224.104 101.222 224.913 100.856 225.891 100.661C226.882 100.464 227.776 100.492 228.573 100.745C229.373 101.011 230.033 101.453 230.555 102.07C231.079 102.699 231.429 103.454 231.604 104.333C231.779 105.212 231.743 106.037 231.497 106.807C231.254 107.589 230.812 108.25 230.173 108.789C229.548 109.338 228.747 109.71 227.769 109.904C226.778 110.102 225.883 110.067 225.083 109.801C224.284 109.536 223.622 109.088 223.097 108.458C222.573 107.829 222.223 107.074 222.048 106.195ZM223.364 105.914C223.472 106.459 223.692 106.95 224.023 107.386C224.367 107.82 224.822 108.135 225.389 108.331C225.971 108.537 226.658 108.561 227.451 108.403C228.256 108.243 228.882 107.964 229.331 107.566C229.78 107.168 230.074 106.704 230.213 106.174C230.367 105.654 230.39 105.122 230.281 104.577C230.173 104.032 229.948 103.549 229.607 103.127C229.278 102.704 228.824 102.395 228.245 102.201C227.68 102.017 227.002 102.004 226.209 102.162C225.404 102.322 224.776 102.595 224.325 102.981C223.874 103.367 223.57 103.813 223.414 104.321C223.272 104.838 223.255 105.369 223.364 105.914Z" fill="#153443" fill-opacity="0.3"/>
<path d="M233.092 111.631L233.22 112.932L231.889 113.139C232.383 113.395 232.781 113.755 233.08 114.221C233.392 114.685 233.581 115.243 233.645 115.897C233.715 116.613 233.62 117.257 233.359 117.828C233.111 118.398 232.694 118.864 232.108 119.227C231.534 119.588 230.789 119.813 229.872 119.904L224.443 120.438L224.304 119.025L229.563 118.507C230.543 118.41 231.263 118.123 231.724 117.647C232.198 117.181 232.396 116.553 232.318 115.761C232.238 114.944 231.905 114.33 231.318 113.918C230.734 113.519 229.913 113.372 228.858 113.476L223.806 113.973L223.667 112.559L233.092 111.631Z" fill="#153443" fill-opacity="0.3"/>
<path d="M227.945 122.614C227.566 122.69 227.25 122.828 226.998 123.031C226.758 123.233 226.575 123.491 226.448 123.807C226.322 124.135 226.259 124.514 226.259 124.943C226.259 125.613 226.385 126.118 226.638 126.459C226.903 126.812 227.231 126.989 227.623 126.989C227.951 126.989 228.216 126.882 228.418 126.667C228.62 126.465 228.784 126.194 228.911 125.853C229.05 125.512 229.169 125.133 229.271 124.716C229.346 124.388 229.435 124.034 229.536 123.656C229.649 123.277 229.801 122.917 229.99 122.576C230.18 122.235 230.426 121.957 230.729 121.743C231.032 121.528 231.43 121.421 231.922 121.421C232.465 121.421 232.939 121.566 233.343 121.856C233.759 122.159 234.081 122.57 234.309 123.087C234.536 123.618 234.649 124.224 234.649 124.906C234.649 125.688 234.479 126.383 234.138 126.989C233.797 127.608 233.267 128.037 232.547 128.277L232.093 126.951C232.421 126.863 232.673 126.699 232.85 126.459C233.027 126.231 233.147 125.973 233.21 125.682C233.273 125.404 233.305 125.127 233.305 124.849C233.305 124.281 233.191 123.82 232.964 123.466C232.749 123.125 232.421 122.955 231.979 122.955C231.739 122.955 231.537 123.012 231.373 123.125C231.221 123.239 231.095 123.397 230.994 123.599C230.893 123.801 230.805 124.041 230.729 124.318C230.666 124.596 230.59 124.899 230.502 125.228C230.413 125.594 230.3 125.966 230.161 126.345C230.034 126.724 229.864 127.077 229.649 127.406C229.447 127.734 229.182 127.999 228.854 128.201C228.538 128.416 228.14 128.523 227.661 128.523C227.105 128.523 226.619 128.372 226.202 128.069C225.798 127.766 225.482 127.343 225.255 126.8C225.028 126.269 224.914 125.651 224.914 124.943C224.914 123.971 225.129 123.163 225.558 122.519C226 121.888 226.644 121.465 227.49 121.25L227.945 122.614Z" fill="#153443" fill-opacity="0.3"/>
<path d="M235.789 146.077L236.939 148.739L235.744 149.119L235.132 146.274L233.474 148.687L232.5 147.856L234.581 145.837L231.669 145.528L231.909 144.32L234.725 145.112L233.553 142.465L234.811 142.059L235.424 144.903L237.041 142.502L238.015 143.333L235.929 145.371L238.838 145.698L238.594 146.924L235.789 146.077Z" fill="#153443" fill-opacity="0.3"/>
<path d="M228.339 168.511L227.773 169.876L217.597 159.798L218.119 158.538L221.125 161.526L231.216 161.564L230.622 162.999L222.393 162.871L228.339 168.511Z" fill="#153443" fill-opacity="0.3"/>
<path d="M216.846 171.331C217.268 170.54 217.819 169.925 218.497 169.486C219.176 169.047 219.928 168.819 220.753 168.802C221.589 168.791 222.447 169.021 223.327 169.491C224.218 169.967 224.891 170.556 225.346 171.257C225.796 171.97 226.027 172.73 226.038 173.539C226.044 174.358 225.836 175.163 225.413 175.953C224.991 176.744 224.44 177.359 223.762 177.798C223.077 178.248 222.317 178.479 221.48 178.49C220.649 178.518 219.794 178.297 218.914 177.827C218.023 177.351 217.353 176.756 216.904 176.044C216.454 175.331 216.227 174.565 216.221 173.746C216.215 172.926 216.423 172.122 216.846 171.331ZM218.041 171.948C217.779 172.438 217.637 172.957 217.617 173.504C217.607 174.057 217.76 174.59 218.073 175.101C218.392 175.629 218.908 176.084 219.621 176.465C220.344 176.852 221.006 177.034 221.606 177.011C222.205 176.987 222.727 176.815 223.17 176.494C223.619 176.19 223.975 175.793 224.236 175.303C224.498 174.813 224.631 174.297 224.634 173.755C224.649 173.218 224.494 172.692 224.169 172.174C223.849 171.674 223.333 171.234 222.621 170.853C221.897 170.466 221.238 170.278 220.645 170.29C220.051 170.303 219.533 170.455 219.09 170.748C218.652 171.058 218.302 171.458 218.041 171.948Z" fill="#153443" fill-opacity="0.3"/>
<path d="M210.576 182.708L211.291 181.637L212.478 182.316C212.24 181.808 212.148 181.276 212.201 180.719C212.265 180.169 212.479 179.621 212.844 179.075C213.251 178.466 213.731 178.02 214.284 177.737C214.838 177.454 215.451 177.355 216.123 177.44C216.789 177.535 217.504 177.839 218.271 178.351L222.838 181.402L222.059 182.568L217.618 179.6C216.81 179.06 216.08 178.823 215.428 178.889C214.78 178.972 214.235 179.345 213.794 180.006C213.345 180.678 213.206 181.352 213.376 182.028C213.551 182.722 214.079 183.363 214.961 183.952L219.229 186.804L218.45 187.969L210.576 182.708Z" fill="#153443" fill-opacity="0.3"/>
<path d="M202.145 194.177L203.056 193.266L211.855 197.86L210.837 198.877L203.846 194.967L207.569 202.145L206.658 203.056L199.52 199.319L203.431 206.284L202.44 207.275L197.832 198.489L198.757 197.565L205.64 201.074L202.145 194.177Z" fill="#153443" fill-opacity="0.3"/>
<path d="M204.18 206.12L203.17 206.95L202.234 205.929C202.255 206.353 202.205 206.769 202.084 207.179C201.953 207.597 201.75 207.976 201.474 208.317C201.197 208.675 200.839 208.976 200.403 209.22L199.502 208.122C199.976 207.864 200.346 207.56 200.614 207.209C200.872 206.867 201.03 206.492 201.088 206.085C201.146 205.678 201.103 205.257 200.957 204.821C200.82 204.394 200.575 203.967 200.222 203.537L197.074 199.701L198.172 198.8L204.18 206.12Z" fill="#153443" fill-opacity="0.3"/>
<path d="M196.25 213.13L195.084 213.908L189.823 206.034L190.988 205.256L196.25 213.13ZM196.704 215.104C196.945 214.943 197.197 214.888 197.46 214.941C197.722 214.993 197.931 215.134 198.085 215.365C198.247 215.607 198.301 215.859 198.249 216.122C198.197 216.384 198.05 216.596 197.808 216.758C197.588 216.905 197.346 216.953 197.084 216.9C196.81 216.855 196.593 216.712 196.432 216.47C196.277 216.239 196.232 215.989 196.294 215.719C196.347 215.457 196.483 215.252 196.704 215.104Z" fill="#153443" fill-opacity="0.3"/>
<path d="M187.619 219.325L188.869 221.664L187.616 222.334L186.366 219.995L184.145 221.183L183.52 220.013L185.741 218.826L183.34 214.333C183.066 213.82 182.761 213.504 182.424 213.383C182.077 213.268 181.724 213.278 181.366 213.412C180.997 213.552 180.64 213.742 180.297 213.983L179.716 212.897C180.097 212.565 180.511 212.308 180.958 212.127C181.394 211.951 181.832 211.874 182.274 211.896C182.71 211.935 183.129 212.09 183.532 212.361C183.924 212.639 184.277 213.073 184.593 213.663L186.994 218.156L188.247 217.487L188.872 218.656L187.619 219.325Z" fill="#153443" fill-opacity="0.3"/>
<path d="M171.914 216.914C172.731 216.576 173.542 216.472 174.348 216.603C175.142 216.738 175.862 217.076 176.509 217.614C177.156 218.152 177.663 218.865 178.03 219.752C178.383 220.603 178.516 221.436 178.43 222.251C178.344 223.066 178.063 223.79 177.588 224.425C177.117 225.07 176.479 225.56 175.674 225.893C174.881 226.222 174.103 226.339 173.34 226.246C172.565 226.156 171.874 225.875 171.268 225.402C170.662 224.929 170.207 224.291 169.901 223.488C169.848 223.359 169.798 223.223 169.752 223.078C169.706 222.933 169.655 222.777 169.599 222.608L176.37 219.803C176.12 219.265 175.785 218.836 175.366 218.518C174.947 218.199 174.489 218 173.991 217.919C173.486 217.855 172.977 217.929 172.464 218.142C171.787 218.422 171.268 218.787 170.908 219.237C170.536 219.692 170.344 220.202 170.332 220.767L169.007 220.783C169.052 219.903 169.325 219.127 169.826 218.455C170.331 217.795 171.027 217.281 171.914 216.914ZM171.452 223.173C171.648 223.68 171.943 224.077 172.335 224.365C172.717 224.659 173.157 224.831 173.657 224.884C174.157 224.936 174.676 224.852 175.212 224.629C175.679 224.436 176.059 224.149 176.352 223.768C176.645 223.387 176.838 222.945 176.93 222.442C177.016 221.955 176.98 221.457 176.824 220.948L171.452 223.173Z" fill="#153443" fill-opacity="0.3"/>
<path d="M159.592 232.091L160.11 234.692L158.716 234.969L158.199 232.369L155.728 232.86L155.47 231.56L157.94 231.068L156.947 226.071C156.833 225.502 156.633 225.11 156.346 224.897C156.047 224.686 155.706 224.593 155.325 224.617C154.931 224.644 154.535 224.723 154.136 224.854L153.896 223.646C154.357 223.439 154.827 223.313 155.308 223.269C155.776 223.227 156.218 223.281 156.634 223.43C157.039 223.594 157.396 223.864 157.702 224.241C157.997 224.62 158.209 225.138 158.34 225.794L159.334 230.791L160.727 230.514L160.986 231.814L159.592 232.091Z" fill="#153443" fill-opacity="0.3"/>
<path d="M150.574 238.535L149.16 238.674L148.626 233.246C148.369 233.728 147.994 234.114 147.503 234.403C147.012 234.705 146.447 234.888 145.806 234.951C145.115 235.019 144.483 234.923 143.912 234.662C143.341 234.401 142.874 233.977 142.512 233.391C142.137 232.807 141.905 232.056 141.814 231.138L141.283 225.747L142.791 225.599L143.305 230.82C143.402 231.8 143.683 232.527 144.148 233.002C144.615 233.489 145.244 233.693 146.036 233.615C146.853 233.535 147.466 233.195 147.877 232.597C148.275 231.999 148.422 231.173 148.318 230.117L147.824 225.103L149.237 224.964L150.574 238.535Z" fill="#153443" fill-opacity="0.3"/>
<path d="M135.986 226.211C136.87 226.211 137.659 226.426 138.354 226.855C139.035 227.284 139.572 227.872 139.963 228.617C140.355 229.362 140.551 230.214 140.551 231.173C140.551 232.095 140.355 232.916 139.963 233.636C139.572 234.355 139.035 234.917 138.354 235.321C137.672 235.738 136.895 235.946 136.024 235.946C135.165 235.946 134.401 235.757 133.732 235.378C133.05 234.999 132.52 234.475 132.141 233.806C131.762 233.137 131.586 232.373 131.611 231.514C131.611 231.375 131.617 231.23 131.63 231.079C131.642 230.927 131.655 230.763 131.668 230.586H138.998C138.972 229.993 138.827 229.469 138.562 229.014C138.297 228.56 137.95 228.2 137.52 227.935C137.078 227.682 136.58 227.556 136.024 227.556C135.292 227.556 134.673 227.695 134.168 227.973C133.65 228.25 133.278 228.648 133.05 229.166L131.819 228.673C132.198 227.878 132.747 227.265 133.467 226.836C134.187 226.42 135.026 226.211 135.986 226.211ZM133.164 231.817C133.151 232.36 133.271 232.84 133.524 233.257C133.764 233.674 134.105 234.002 134.547 234.242C134.989 234.482 135.5 234.602 136.081 234.602C136.586 234.602 137.047 234.482 137.463 234.242C137.88 234.002 138.227 233.667 138.505 233.238C138.77 232.821 138.928 232.348 138.979 231.817H133.164Z" fill="#153443" fill-opacity="0.3"/>
<path d="M118.836 235.531L117.438 227.22L112.947 234.36L111.48 234.068L117.042 225.519L118.491 225.807L120.322 235.827L118.836 235.531Z" fill="#153443" fill-opacity="0.3"/>
<path d="M108.918 233.957L107.577 233.55L110.326 224.487L111.667 224.894L108.918 233.957ZM107.68 235.56C107.957 235.644 108.16 235.805 108.286 236.041C108.412 236.277 108.435 236.528 108.354 236.794C108.27 237.072 108.11 237.274 107.873 237.4C107.637 237.526 107.38 237.547 107.102 237.463C106.848 237.386 106.658 237.23 106.532 236.993C106.394 236.753 106.367 236.495 106.451 236.217C106.532 235.951 106.696 235.757 106.945 235.634C107.181 235.508 107.426 235.483 107.68 235.56Z" fill="#153443" fill-opacity="0.3"/>
<path d="M101.011 225.075C101.086 224.696 101.079 224.351 100.989 224.041C100.894 223.742 100.725 223.473 100.482 223.236C100.227 222.994 99.9008 222.79 99.5042 222.626C98.8859 222.37 98.371 222.293 97.9594 222.396C97.5313 222.506 97.2423 222.742 97.0925 223.103C96.9669 223.406 96.9646 223.693 97.0856 223.961C97.1949 224.225 97.3829 224.481 97.6496 224.728C97.9114 224.987 98.2154 225.243 98.5617 225.495C98.8361 225.691 99.1289 225.908 99.4402 226.146C99.7467 226.396 100.021 226.674 100.264 226.979C100.506 227.285 100.669 227.619 100.751 227.981C100.833 228.343 100.78 228.751 100.592 229.206C100.384 229.708 100.069 230.09 99.6457 230.352C99.2062 230.621 98.7039 230.761 98.1386 230.773C97.5617 230.78 96.9583 230.653 96.3283 230.392C95.605 230.093 95.0287 229.67 94.5992 229.123C94.158 228.571 93.9644 227.917 94.0181 227.16L95.417 227.247C95.373 227.584 95.428 227.881 95.582 228.136C95.7243 228.386 95.9176 228.596 96.1617 228.765C96.3942 228.93 96.6388 229.065 96.8954 229.172C97.4204 229.389 97.8896 229.461 98.3033 229.386C98.7004 229.318 98.9835 229.08 99.1526 228.672C99.2444 228.45 99.2692 228.242 99.2271 228.046C99.1801 227.863 99.0826 227.686 98.9346 227.515C98.7866 227.345 98.5988 227.171 98.3711 226.995C98.1386 226.83 97.8876 226.644 97.6182 226.437C97.3137 226.215 97.013 225.968 96.7162 225.694C96.4146 225.433 96.1532 225.14 95.932 224.816C95.706 224.504 95.5625 224.157 95.5015 223.777C95.424 223.403 95.477 222.994 95.6607 222.551C95.8733 222.038 96.1993 221.647 96.6387 221.378C97.0733 221.12 97.5849 220.991 98.1735 220.988C98.7504 220.981 99.3655 221.113 100.019 221.384C100.917 221.756 101.582 222.263 102.012 222.906C102.426 223.556 102.571 224.313 102.445 225.177L101.011 225.075Z" fill="#153443" fill-opacity="0.3"/>
<path d="M89.2968 227.757L88.0607 227.097L92.5248 218.745L93.7609 219.406L89.2968 227.757ZM87.7692 229.088C88.0253 229.225 88.1923 229.422 88.27 229.678C88.3478 229.935 88.3212 230.185 88.1902 230.43C88.0533 230.686 87.8567 230.853 87.6004 230.931C87.3441 231.009 87.0878 230.979 86.8317 230.842C86.5979 230.717 86.4421 230.527 86.3643 230.27C86.2754 230.008 86.2994 229.749 86.4363 229.493C86.5673 229.248 86.7665 229.089 87.0339 229.018C87.2903 228.94 87.5353 228.963 87.7692 229.088Z" fill="#153443" fill-opacity="0.3"/>
<path d="M82.2019 213.145C82.9473 213.643 83.5053 214.251 83.8757 214.969C84.2462 215.688 84.3995 216.458 84.3356 217.281C84.2647 218.115 83.9521 218.946 83.3979 219.775C82.8367 220.615 82.1847 221.228 81.4419 221.612C80.6885 221.989 79.9092 222.144 79.1038 222.077C78.2879 222.003 77.5072 221.716 76.7618 221.218C76.0164 220.72 75.4585 220.112 75.088 219.394C74.7071 218.668 74.552 217.889 74.623 217.056C74.6764 216.226 74.9801 215.396 75.5343 214.567C76.0955 213.727 76.7528 213.118 77.5061 212.741C78.2595 212.363 79.0441 212.212 79.86 212.286C80.6759 212.361 81.4565 212.647 82.2019 213.145ZM81.4706 214.274C81.0086 213.965 80.5063 213.773 79.9635 213.699C79.4138 213.636 78.8691 213.735 78.3295 213.997C77.7724 214.263 77.2694 214.731 76.8205 215.403C76.3645 216.086 76.1187 216.726 76.083 217.325C76.0474 217.924 76.1676 218.46 76.4438 218.933C76.7024 219.41 77.0627 219.802 77.5247 220.111C77.9866 220.419 78.4872 220.602 79.0265 220.659C79.5587 220.726 80.0981 220.623 80.6447 220.35C81.1738 220.081 81.6628 219.611 82.1118 218.939C82.5678 218.256 82.8188 217.619 82.865 217.028C82.9111 216.436 82.8101 215.905 82.562 215.436C82.2963 214.97 81.9325 214.582 81.4706 214.274Z" fill="#153443" fill-opacity="0.3"/>
<path d="M71.4793 218.028L70.4691 217.199L71.2636 216.111C70.733 216.28 70.1972 216.306 69.6564 216.189C69.1075 216.081 68.5793 215.819 68.0717 215.403C67.5154 214.946 67.1275 214.424 66.908 213.835C66.6806 213.257 66.646 212.632 66.8042 211.962C66.9545 211.301 67.322 210.614 67.9067 209.902L71.3672 205.685L72.4652 206.586L69.1129 210.671C68.4881 211.432 68.1814 212.144 68.1929 212.807C68.1866 213.472 68.4909 214.056 69.1058 214.561C69.7402 215.082 70.4102 215.28 71.1158 215.157C71.8116 215.026 72.496 214.55 73.1688 213.73L76.389 209.806L77.487 210.707L71.4793 218.028Z" fill="#153443" fill-opacity="0.3"/>
<path d="M59.236 194.242L57.9904 195.411C58.6076 195.248 59.2073 195.262 59.7895 195.454C60.3619 195.654 60.9005 196.061 61.4051 196.676C61.8377 197.203 62.1232 197.72 62.2616 198.227C62.4001 198.734 62.4022 199.215 62.2678 199.668C62.1157 200.12 61.8297 200.518 61.41 200.862C60.7951 201.367 60.1042 201.55 59.3373 201.411C58.5606 201.281 57.7719 200.818 56.9712 200.021L54.8719 197.971L54.2862 198.451C53.8763 198.788 53.6735 199.207 53.6778 199.71C53.6723 200.221 53.8819 200.735 54.3064 201.252C54.723 201.76 55.1885 202.088 55.7031 202.238C56.2098 202.377 56.7347 202.33 57.2781 202.097L57.7438 203.381C56.9394 203.714 56.1443 203.77 55.3586 203.55C54.5649 203.319 53.8597 202.828 53.2429 202.076C52.53 201.207 52.2018 200.35 52.2582 199.503C52.297 198.655 52.697 197.918 53.4583 197.293L58.4069 193.232L59.236 194.242ZM55.8089 197.202L57.9348 199.255C58.3939 199.695 58.8349 199.953 59.2579 200.031C59.6712 200.117 60.0486 200.019 60.3902 199.739C60.7319 199.458 60.905 199.112 60.9097 198.7C60.9064 198.278 60.7126 197.833 60.3281 197.364C59.8875 196.827 59.4197 196.476 58.9246 196.311C58.4295 196.145 57.9373 196.133 57.448 196.273C56.9409 196.411 56.4726 196.657 56.0432 197.009L55.8089 197.202Z" fill="#153443" fill-opacity="0.3"/>
<path d="M48.8212 197.134L48.0952 196.048L49.1712 195.238C48.6144 195.245 48.0942 195.114 47.6106 194.845C47.1166 194.583 46.6872 194.179 46.3224 193.633C45.9225 193.035 45.703 192.422 45.6638 191.795C45.6142 191.176 45.7624 190.568 46.1084 189.972C46.444 189.383 46.995 188.833 47.7614 188.321L52.2969 185.29L53.086 186.471L48.6923 189.407C47.8734 189.954 47.3733 190.547 47.1918 191.184C46.9929 191.818 47.1144 192.466 47.5563 193.128C48.0123 193.81 48.5958 194.195 49.3068 194.281C50.0108 194.358 50.8037 194.101 51.6856 193.512L55.9061 190.692L56.6953 191.873L48.8212 197.134Z" fill="#153443" fill-opacity="0.3"/>
<path d="M40.9979 181.457L41.086 181.581L35.7075 184.456L35.0378 183.204L47.0645 176.775L47.6805 177.928L46.1717 178.842C46.7763 178.848 47.377 179.021 47.9737 179.36C48.5645 179.689 49.0593 180.226 49.4581 180.972C49.8688 181.741 50.0563 182.506 50.0206 183.27C49.9678 184.028 49.7048 184.742 49.2315 185.41C48.7523 186.067 48.0784 186.628 47.2098 187.092C46.3413 187.556 45.5063 187.802 44.7049 187.829C43.8864 187.852 43.1472 187.674 42.4873 187.297C41.8214 186.908 41.2831 186.33 40.8724 185.561C40.4498 184.771 40.2712 184.021 40.3367 183.313C40.4022 182.606 40.6226 181.987 40.9979 181.457ZM46.4867 185.739C47.4443 185.227 48.0762 184.574 48.3822 183.781C48.6771 182.993 48.5984 182.176 48.146 181.33C47.8662 180.806 47.4938 180.404 47.0285 180.123C46.5633 179.842 46.0344 179.71 45.4417 179.726C44.843 179.731 44.2152 179.909 43.5582 180.26C42.9012 180.611 42.4099 181.031 42.0842 181.52C41.7415 182.004 41.5578 182.518 41.533 183.061C41.4971 183.61 41.6191 184.146 41.8988 184.669C42.3452 185.504 42.9863 186.021 43.8221 186.218C44.6408 186.41 45.529 186.251 46.4867 185.739Z" fill="#153443" fill-opacity="0.3"/>
<path d="M41.3137 171.827L41.6875 173.06L33.4885 178.654L33.0706 177.277L39.815 172.955L31.7291 172.854L31.3552 171.622L38.0155 167.088L30.0302 167.254L29.6234 165.913L39.5433 165.991L39.9227 167.242L33.5831 171.659L41.3137 171.827Z" fill="#153443" fill-opacity="0.3"/>
<path d="M38.4659 155.061C38.6383 155.928 38.5817 156.744 38.2962 157.508C38.0081 158.261 37.537 158.902 36.8827 159.431C36.2284 159.96 35.4306 160.319 34.4894 160.506C33.5854 160.686 32.7422 160.654 31.96 160.41C31.1777 160.167 30.522 159.75 29.9926 159.16C29.4509 158.573 29.0951 157.852 28.9251 156.997C28.7576 156.155 28.7944 155.369 29.0353 154.639C29.2738 153.896 29.6843 153.274 30.2668 152.772C30.8492 152.27 31.564 151.947 32.411 151.804C32.5472 151.777 32.6909 151.755 32.842 151.738C32.993 151.721 33.1565 151.701 33.3323 151.679L34.7623 158.868C35.3394 158.727 35.825 158.483 36.2191 158.134C36.6132 157.785 36.8984 157.375 37.0748 156.902C37.2362 156.419 37.2628 155.905 37.1544 155.36C37.0115 154.642 36.7546 154.062 36.3836 153.621C36.0101 153.168 35.5474 152.88 34.9953 152.758L35.2381 151.454C36.0922 151.671 36.8 152.09 37.3614 152.712C37.9105 153.337 38.2787 154.12 38.4659 155.061ZM32.4168 153.387C31.8818 153.48 31.4346 153.692 31.0752 154.02C30.7133 154.337 30.4579 154.736 30.3088 155.216C30.1597 155.696 30.1418 156.221 30.2551 156.791C30.3537 157.286 30.5612 157.715 30.8778 158.076C31.1944 158.438 31.5903 158.714 32.0656 158.902C32.526 159.081 33.0212 159.144 33.5512 159.09L32.4168 153.387Z" fill="#153443" fill-opacity="0.3"/>
<path d="M27.8485 151.418L23.5941 150.733L23.427 149.037L27.7427 150.343L27.8485 151.418Z" fill="#153443" fill-opacity="0.3"/>
<path d="M21.8163 140.608V139.188H35.4531V140.608H21.8163Z" fill="#153443" fill-opacity="0.3"/>
<path d="M21.4226 129.906L21.5618 128.492L35.133 129.829L34.9938 131.243L21.4226 129.906Z" fill="#153443" fill-opacity="0.3"/>
<path d="M25.8048 117.006L26.1841 115.756L27.5166 116.061C27.1622 115.663 26.926 115.202 26.8079 114.678C26.6813 114.138 26.7134 113.554 26.904 112.926C27.0982 112.286 27.4312 111.753 27.903 111.329C28.3663 110.889 28.9441 110.616 29.6362 110.509C29.1043 110.044 28.7734 109.482 28.6436 108.822C28.5138 108.163 28.5534 107.489 28.7623 106.8C28.9675 106.123 29.3 105.571 29.7597 105.143C30.2073 104.711 30.7711 104.44 31.4512 104.33C32.1191 104.216 32.8941 104.293 33.7762 104.56L38.996 106.144L38.5837 107.503L33.5269 105.969C32.5845 105.683 31.8093 105.672 31.2013 105.937C30.585 106.185 30.1631 106.684 29.9359 107.433C29.705 108.194 29.7875 108.879 30.1836 109.487C30.5675 110.092 31.273 110.55 32.3001 110.862L37.1212 112.324L36.7089 113.684L31.6521 112.15C30.7096 111.864 29.9381 111.841 29.3375 112.081C28.7248 112.317 28.3048 112.81 28.0776 113.559C27.8467 114.32 27.931 114.999 28.3307 115.595C28.722 116.176 29.4312 116.622 30.4583 116.934L35.2794 118.396L34.867 119.755L25.8048 117.006Z" fill="#153443" fill-opacity="0.3"/>
<path d="M41.3628 98.0171L39.7445 97.4697C40.1796 97.937 40.4498 98.4726 40.555 99.0765C40.6485 99.6756 40.5431 100.343 40.2386 101.078C39.9777 101.707 39.6563 102.203 39.2744 102.564C38.8924 102.925 38.4699 103.153 38.0068 103.249C37.5369 103.327 37.0511 103.263 36.5495 103.055C35.8145 102.751 35.3273 102.228 35.0878 101.486C34.8366 100.74 34.8735 99.8256 35.1986 98.7439L36.0173 95.9259L35.3174 95.636C34.8274 95.433 34.3618 95.452 33.9203 95.6928C33.4672 95.9288 33.1126 96.3559 32.8565 96.9742C32.6053 97.5808 32.5351 98.1463 32.6459 98.6705C32.7616 99.1831 33.0505 99.624 33.5126 99.9931L32.5998 101.009C31.9265 100.457 31.5021 99.7821 31.3266 98.9851C31.1559 98.1763 31.2566 97.3229 31.6286 96.4246C32.0587 95.3864 32.6604 94.6926 33.4338 94.3433C34.2004 93.9774 35.0386 93.9829 35.9485 94.3598L41.8629 96.8097L41.3628 98.0171ZM37.1372 96.3898L36.3288 99.2325C36.1571 99.8448 36.1368 100.356 36.2679 100.765C36.3872 101.17 36.651 101.457 37.0593 101.626C37.4676 101.795 37.8546 101.785 38.2204 101.595C38.591 101.393 38.8923 101.012 39.1242 100.452C39.39 99.8103 39.4791 99.2322 39.3916 98.7176C39.3041 98.203 39.0832 97.763 38.7289 97.3976C38.3677 97.0156 37.9305 96.7184 37.4172 96.5057L37.1372 96.3898Z" fill="#153443" fill-opacity="0.3"/>
<path d="M30.2307 88.2315L30.9093 86.9621L38.2088 90.8637L38.6195 90.0953L36.7537 84.8673L37.7001 83.0967L39.7689 89.2708L46.0608 87.5441L45.1055 89.3314L39.7052 90.6757L39.2945 91.4441L42.9359 93.3904L42.2574 94.6599L30.2307 88.2315Z" fill="#153443" fill-opacity="0.3"/>
<path d="M49.2373 82.9488C48.7462 83.6837 48.1293 84.2206 47.3865 84.5595C46.6508 84.8879 45.8644 85.0079 45.0275 84.9195C44.1907 84.8311 43.3733 84.5203 42.5754 83.9871C41.8089 83.475 41.2353 82.8563 40.8543 82.131C40.4733 81.4057 40.3043 80.6473 40.3471 79.8559C40.3795 79.0575 40.6377 78.2961 41.1217 77.5717C41.5987 76.8577 42.1806 76.3278 42.8674 75.9818C43.5612 75.6253 44.2915 75.4755 45.0584 75.5324C45.8253 75.5892 46.5586 75.8666 47.2585 76.3646C47.374 76.4418 47.4912 76.5277 47.6102 76.6224C47.7292 76.7171 47.8586 76.8188 47.9986 76.9275L43.9264 83.022C44.4339 83.3307 44.9502 83.5011 45.4755 83.5332C46.0008 83.5652 46.4929 83.4764 46.9519 83.2668C47.4074 83.0396 47.7895 82.6951 48.0981 82.2331C48.505 81.6242 48.7332 81.0326 48.7829 80.4583C48.8395 79.8736 48.7158 79.3429 48.4116 78.8663L49.505 78.1162C49.956 78.8731 50.16 79.6701 50.1171 80.507C50.0637 81.3369 49.7704 82.1508 49.2373 82.9488ZM46.1437 77.4876C45.6993 77.1755 45.2337 77.0086 44.7469 76.9871C44.2672 76.9551 43.8048 77.0562 43.3598 77.2903C42.9148 77.5245 42.531 77.8831 42.2083 78.366C41.9277 78.786 41.7714 79.2358 41.7393 79.7155C41.7073 80.1953 41.7926 80.6699 41.9952 81.1394C42.1944 81.5914 42.5004 81.9857 42.9133 82.3223L46.1437 77.4876Z" fill="#153443" fill-opacity="0.3"/>
<path d="M50.1778 63.7018L51.1688 62.7108L57.8652 69.4071L56.8741 70.3981L50.1778 63.7018ZM49.3474 61.8536C49.1421 62.059 48.9055 62.1617 48.6376 62.1617C48.3698 62.1617 48.1376 62.0634 47.9412 61.867C47.7359 61.6617 47.6332 61.4251 47.6332 61.1572C47.6332 60.8894 47.7359 60.6528 47.9412 60.4474C48.1287 60.2599 48.3564 60.1662 48.6242 60.1662C48.901 60.1572 49.1421 60.2554 49.3474 60.4608C49.5439 60.6572 49.6376 60.8938 49.6287 61.1706C49.6287 61.4385 49.5349 61.6661 49.3474 61.8536Z" fill="#153443" fill-opacity="0.3"/>
<path d="M57.4291 55.9442L55.7469 53.8945L56.845 52.9933L58.5271 55.0431L60.4744 53.445L61.3155 54.4699L59.3682 56.0679L62.6004 60.0063C62.9689 60.4553 63.3299 60.7062 63.6836 60.759C64.047 60.8037 64.3912 60.7255 64.716 60.5242C65.0506 60.3149 65.363 60.0586 65.653 59.7552L66.434 60.7069C66.1255 61.1071 65.7697 61.4399 65.3668 61.7053C64.9736 61.9626 64.5585 62.1236 64.1215 62.1882C63.6862 62.2351 63.2446 62.1646 62.7966 61.977C62.3583 61.7813 61.9269 61.4248 61.5023 60.9075L58.2702 56.9691L57.1721 57.8702L56.331 56.8454L57.4291 55.9442Z" fill="#153443" fill-opacity="0.3"/>
<path d="M73.1137 49.4722L73.2384 49.384L75.9348 54.4285L74.682 55.0981L68.4322 43.4056L69.5847 42.7895L70.4986 44.2983C70.5047 43.6937 70.672 43.096 71.0005 42.5053C71.329 41.9145 71.8719 41.4167 72.6291 41.012C73.3529 40.6251 74.0996 40.455 74.8691 40.5019C75.6327 40.5376 76.3542 40.7891 77.0335 41.2564C77.7068 41.7125 78.2786 42.3805 78.7488 43.2602C79.2131 44.1288 79.4564 44.9723 79.4787 45.7908C79.5061 46.5922 79.3256 47.3259 78.937 47.9917C78.5595 48.6516 77.9866 49.1869 77.2183 49.5976C76.4165 50.0262 75.6616 50.2077 74.9537 50.1423C74.2458 50.0768 73.6325 49.8535 73.1137 49.4722ZM77.3958 43.9834C76.8839 43.0257 76.2286 42.4024 75.4299 42.1135C74.6364 41.8075 73.822 41.8776 72.9868 42.3241C72.4635 42.6038 72.0557 42.9793 71.7634 43.4504C71.4824 43.9157 71.3499 44.4446 71.366 45.0373C71.3822 45.63 71.5658 46.2549 71.917 46.9119C72.2623 47.5578 72.6768 48.052 73.1606 48.3948C73.6445 48.7375 74.1609 48.9268 74.7098 48.9627C75.2639 48.9815 75.8026 48.851 76.326 48.5712C77.1612 48.1248 77.675 47.4923 77.8673 46.6736C78.0649 45.8378 77.9077 44.9411 77.3958 43.9834Z" fill="#153443" fill-opacity="0.3"/>
<path d="M75.7202 34.3362L77.0326 33.7926L82.2512 46.3914L80.9388 46.935L75.7202 34.3362Z" fill="#153443" fill-opacity="0.3"/>
<path d="M95.0906 41.2018L94.487 39.6036C94.4019 40.2364 94.1592 40.785 93.7591 41.2494C93.3554 41.7018 92.7729 42.0434 92.0116 42.2743C91.3591 42.4723 90.7722 42.5382 90.2507 42.472C89.7292 42.4059 89.2848 42.224 88.9175 41.9264C88.5585 41.6131 88.3002 41.1966 88.1426 40.6771C87.9117 39.9158 88.0069 39.2074 88.4282 38.5518C88.8458 37.8841 89.5758 37.3328 90.6182 36.8979L93.3159 35.7431L93.096 35.0181C92.9421 34.5106 92.632 34.1626 92.1658 33.9742C91.6959 33.7736 91.1408 33.7705 90.5004 33.9648C89.872 34.1554 89.3904 34.4598 89.0555 34.8781C88.7326 35.2927 88.5751 35.7957 88.583 36.3871L87.2186 36.326C87.2183 35.4552 87.4706 34.6991 87.9754 34.0578C88.4922 33.4128 89.2159 32.9492 90.1463 32.6669C91.2216 32.3407 92.1397 32.3657 92.9003 32.7419C93.6694 33.1024 94.1969 33.7539 94.4828 34.6963L96.3412 40.8224L95.0906 41.2018ZM93.6678 36.903L90.9575 38.0815C90.3753 38.3372 89.9675 38.6457 89.7339 39.0068C89.4967 39.3558 89.4423 39.7418 89.5706 40.1647C89.6989 40.5876 89.9525 40.8801 90.3316 41.0422C90.7227 41.2007 91.2083 41.1919 91.7883 41.016C92.4528 40.8144 92.9562 40.5166 93.2985 40.1224C93.6408 39.7283 93.8408 39.2784 93.8985 38.7727C93.9646 38.2512 93.917 37.7247 93.7558 37.193L93.6678 36.903Z" fill="#153443" fill-opacity="0.3"/>
<path d="M98.6387 30.4167L100.013 30.1433L101.861 39.4314L100.486 39.7048L98.6387 30.4167ZM98.9751 28.4187C98.6903 28.4754 98.4365 28.4293 98.2138 28.2805C97.9911 28.1317 97.8527 27.921 97.7985 27.6486C97.7418 27.3638 97.7879 27.11 97.9367 26.8873C98.0855 26.6646 98.3023 26.5249 98.5872 26.4682C98.8472 26.4165 99.0886 26.465 99.3113 26.6138C99.5464 26.7602 99.6923 26.9758 99.749 27.2606C99.8031 27.5331 99.7496 27.7819 99.5885 28.0071C99.4396 28.2298 99.2352 28.367 98.9751 28.4187Z" fill="#153443" fill-opacity="0.3"/>
<path d="M108.373 28.0569L109.674 27.9288L109.881 29.2596C110.137 28.765 110.498 28.3679 110.963 28.0683C111.427 27.7561 111.986 27.5679 112.639 27.5035C113.355 27.433 113.999 27.5282 114.57 27.7891C115.14 28.0375 115.607 28.4547 115.969 29.0407C116.33 29.6141 116.555 30.3595 116.646 31.2768L117.18 36.7053L115.767 36.8446L115.249 31.5857C115.152 30.6056 114.866 29.8852 114.389 29.4247C113.923 28.9503 113.295 28.7521 112.503 28.8301C111.687 28.9105 111.072 29.2438 110.661 29.8299C110.261 30.4148 110.114 31.235 110.218 32.2906L110.715 37.3421L109.302 37.4813L108.373 28.0569Z" fill="#153443" fill-opacity="0.3"/>
</svg>
