<svg width="33" height="29" viewBox="0 0 33 29" fill="none" xmlns="http://www.w3.org/2000/svg">
<path d="M30.9402 12.6929C31.5714 12.1681 32.4849 12.668 32.1311 13.6313C31.4617 15.4483 26.3146 17.9746 24.4477 18.4064C16.8889 20.1504 11.8365 14.6162 3.20806 18.5924C2.58356 18.8798 0.527359 20.642 0.326389 19.192C0.198499 18.2719 2.12349 17.4381 2.87754 17.0976C4.40059 16.41 6.39866 15.837 8.05791 15.6344C16.781 14.5631 21.5777 20.9426 30.0649 13.7243C30.417 13.4237 30.7177 12.8806 30.9419 12.6946L30.9402 12.6929Z" fill="#E6DEBC"/>
<path d="M7.76892 21.4943C16.1947 20.8964 19.7125 28.5017 29.9254 26.3774C30.6745 26.2212 31.7208 25.4522 32.2939 26.1033C33.3568 27.3091 30.1613 27.9154 29.4321 28.0433C27.4938 28.3837 25.323 28.3422 23.3798 28.0399C15.7031 26.8441 12.2965 20.2968 3.42399 24.1252C2.63173 24.4673 1.01733 25.7662 0.326396 25.3493C-0.85783 24.6334 1.52225 23.3412 2.04211 23.0755C3.67478 22.245 5.94026 21.6239 7.76892 21.4943Z" fill="#E6DEBC"/>
<path d="M22.0447 12.2679C21.7973 12.517 21.0266 12.5319 20.7974 12.2662C20.5682 12.0005 20.5997 10.8245 20.4768 10.3462C19.6248 7.02272 14.9959 6.23711 12.8815 8.83643C12.3151 9.53235 11.9215 11.7646 10.8619 10.9923C9.8022 10.22 11.7687 7.68542 12.4663 7.09081C15.7565 4.29219 20.995 5.97302 22.0082 10.1436C22.1294 10.6435 22.4085 11.9008 22.0447 12.2679Z" fill="#E6DEBC"/>
<path d="M15.6464 0.22474C16.1197 -0.250279 16.8472 0.0885457 17.0266 0.674846C17.304 1.58004 17.3339 3.81064 15.8839 3.31403C15.2577 3.09977 15.3042 0.568548 15.6464 0.226401V0.22474Z" fill="#E6DEBC"/>
<path d="M10.575 1.5434C10.8108 1.47198 11.0699 1.46368 11.2875 1.59655C11.6512 1.81911 12.6013 3.72417 12.4252 4.22577C11.829 5.92321 9.11338 1.98188 10.575 1.5434Z" fill="#E6DEBC"/>
<path d="M21.3675 1.53707C23.437 0.831188 21.7943 4.72269 20.7015 4.633C19.215 4.51176 20.9888 1.66662 21.3675 1.53707Z" fill="#E6DEBC"/>
<path d="M6.59311 5.52833C7.10301 5.37719 9.04461 6.43353 9.13595 6.91353C9.5462 9.05111 6.31241 7.01484 6.16792 6.54647C6.05331 6.17276 6.15961 5.65622 6.59145 5.52833H6.59311Z" fill="#E6DEBC"/>
<path d="M25.3709 5.5346C26.2246 5.31702 26.7461 6.09433 26.2545 6.75869C26.1598 6.88658 24.4408 7.8798 24.2498 7.91966C23.4974 8.07745 23.1752 7.24866 23.5024 6.66236C23.5555 6.56769 25.2164 5.5728 25.3693 5.5346H25.3709Z" fill="#E6DEBC"/>
</svg>
