<svg width="34" height="18" viewBox="0 0 34 18" fill="none" xmlns="http://www.w3.org/2000/svg">
<path d="M26.804 12.3687L24.7408 12.3337L15.3418 2.20638L8.6973 10.8739C8.37006 11.1388 7.1696 11.4505 6.73036 11.5021C6.46787 11.5321 6.26663 11.6621 6.33313 11.2905L14.2796 1.02482C16.7978 0.0182568 17.6343 2.76632 19.1917 4.02786C22.7003 0.801513 27.4024 5.67104 23.6838 8.78407C23.8011 9.25902 27.1574 12.0754 26.8022 12.3687H26.804ZM21.1551 4.57114C20.8839 4.62947 20.2872 4.96777 20.3432 5.26441C20.3729 5.42106 22.5026 7.54919 22.6671 7.52252C22.9226 7.48086 23.2813 6.92758 23.3636 6.67594C23.7871 5.38773 22.5079 4.28284 21.1551 4.57114Z" fill="#E6DEBC"/>
<path d="M33.8022 14.8686C33.748 15.1485 33.8845 16.2718 33.7917 16.3601C33.6867 16.4634 31.2736 16.6634 30.7906 16.7517C24.3018 17.9316 23.2711 17.6816 16.9713 16.3151C10.7747 14.9719 7.82084 17.2283 2.39077 17.2167C2.06703 17.2167 0.17359 16.9734 0.105342 16.88C-0.0294034 16.6967 -0.0224036 15.8818 0.0563438 15.6452C0.205089 15.1902 0.742321 15.5368 1.15881 15.5452C6.65013 15.6568 10.409 13.6654 16.1611 14.5903C18.4867 14.9636 20.6042 15.8868 23.0331 16.0451C26.8917 16.2934 30.0591 15.1419 33.804 14.8702L33.8022 14.8686Z" fill="#E6DEBC"/>
<path d="M33.9756 11.7021C33.9213 11.9821 34.0578 13.1053 33.9651 13.1936C33.8601 13.2969 31.4486 13.4953 30.9639 13.5852C23.9589 14.8801 23.5546 14.5018 16.8279 13.117C10.9376 11.9054 8.27765 13.9085 3.08732 14.0335C2.72333 14.0419 0.303161 13.9669 0.199914 13.8702C0.136916 13.8119 0.245412 12.632 0.199914 12.3687C1.59812 12.2954 3.09957 12.472 4.48552 12.367C7.12969 12.167 9.6636 11.0438 12.3603 11.0255C16.4324 10.9955 20.0758 12.9186 24.0796 13.0436C27.4903 13.1503 30.6174 11.7938 33.9756 11.7038V11.7021Z" fill="#E6DEBC"/>
<path d="M20.8325 0.0530792C20.934 0.134738 21.3452 2.1862 21.3679 2.53117C21.0232 2.46618 20.2497 2.86447 20.052 2.83114C19.7615 2.78281 19.1648 0.336385 19.2803 0.209731C19.6145 0.191399 20.6225 -0.120237 20.8325 0.0514127V0.0530792Z" fill="#E6DEBC"/>
<path d="M25.7019 1.38814C26.1009 1.28815 26.8954 2.02474 26.7852 2.4197C26.7327 2.60969 25.184 4.05621 24.9897 4.02455C24.8532 4.00122 23.98 3.16796 24.0168 2.97632C24.0378 2.86466 25.5655 1.42147 25.7019 1.38814Z" fill="#E6DEBC"/>
<path d="M28.0296 7.20745C27.9491 7.45409 27.7811 8.50065 27.5659 8.54732C26.9044 8.69063 25.7634 8.03237 25.0547 8.03403L25.4064 6.53418L28.0296 7.20578V7.20745Z" fill="#E6DEBC"/>
</svg>
