<svg width="95" height="74" viewBox="0 0 95 74" fill="none" xmlns="http://www.w3.org/2000/svg">
<path d="M8.59375 73.9992H16.0908C27.8475 45.31 79.0771 44.2854 92.992 73.9992H94.3551C82.0873 40.4715 21.9407 38.0808 8.59375 73.9992Z" fill="white"/>
<path d="M24.0938 73.9986H25.4568C35.7936 60.5647 65.8953 60.2232 78.22 73.9986H85.9442C73.6763 54.7586 35.2257 55.3278 24.0938 73.9986Z" fill="white"/>
<path d="M0.640625 0H8.19444C19.8943 28.6892 71.1808 29.7138 85.0957 0H86.4588C74.1341 33.5277 13.9876 35.9185 0.640625 0Z" fill="white"/>
<path d="M76.122 0H74.9861C65.9556 13.4338 39.6592 13.7754 28.8681 0H22.1094C32.787 19.24 66.3532 18.6708 76.122 0Z" fill="white"/>
<path d="M93.1051 0C90.3222 8.59539 85.3809 26.4123 47.2711 33.2431C23.7577 37.6262 2.51612 47.9862 0.1875 74H1.4938C4.27678 65.4046 9.218 47.3031 47.3279 40.5292C70.8413 36.1462 92.0828 26.0708 94.4114 0H93.1051Z" fill="white"/>
</svg>
