<svg width="1478" height="544" viewBox="0 0 1478 544" fill="none" xmlns="http://www.w3.org/2000/svg">
<path d="M737.344 543.802C737.344 244.173 792.584 1.00049 860.813 1.00049C929.042 1.00049 984.282 243.833 984.282 543.802" stroke="#7599B0" stroke-opacity="0.04" stroke-width="1.93402" stroke-miterlimit="10"/>
<path d="M614.031 543.802C614.031 244.173 669.271 1.00049 737.5 1.00049C805.729 1.00049 860.969 243.833 860.969 543.802" stroke="#7599B0" stroke-opacity="0.04" stroke-width="1.93402" stroke-miterlimit="10"/>
<path d="M490.562 543.802C490.562 244.173 545.803 1.00049 614.032 1.00049C682.26 1.00049 737.5 243.833 737.5 543.802" stroke="#7599B0" stroke-opacity="0.04" stroke-width="1.93402" stroke-miterlimit="10"/>
<path d="M367.25 543.801C367.25 244.172 422.49 1 490.719 1C558.948 1 614.188 243.832 614.188 543.801" stroke="#7599B0" stroke-opacity="0.04" stroke-width="1.93402" stroke-miterlimit="10"/>
<path d="M243.781 543.802C243.781 244.173 299.021 1.00049 367.25 1.00049C435.479 1.00049 490.719 243.833 490.719 543.802" stroke="#7599B0" stroke-opacity="0.04" stroke-width="1.93402" stroke-miterlimit="10"/>
<path d="M120.312 543.802C120.312 244.173 175.553 1.00049 243.782 1.00049C312.01 1.00049 367.25 243.833 367.25 543.802" stroke="#7599B0" stroke-opacity="0.04" stroke-width="1.93402" stroke-miterlimit="10"/>
<path d="M-3 543.801C-3 244.172 52.2403 1 120.469 1C188.698 1 243.938 243.832 243.938 543.801" stroke="#7599B0" stroke-opacity="0.04" stroke-width="1.93402" stroke-miterlimit="10"/>
<path d="M860.812 543.802C860.812 244.173 916.053 1.00049 984.281 1.00049C1052.51 1.00049 1107.75 243.833 1107.75 543.802" stroke="#7599B0" stroke-opacity="0.04" stroke-width="1.93402" stroke-miterlimit="10"/>
<path d="M984.125 543.801C984.125 244.172 1039.37 1 1107.59 1C1175.82 1 1231.06 243.832 1231.06 543.801" stroke="#7599B0" stroke-opacity="0.04" stroke-width="1.93402" stroke-miterlimit="10"/>
<path d="M1107.59 543.802C1107.59 244.173 1162.83 1.00049 1231.06 1.00049C1299.29 1.00049 1354.53 243.833 1354.53 543.802" stroke="#7599B0" stroke-opacity="0.04" stroke-width="1.93402" stroke-miterlimit="10"/>
<path d="M1231.06 543.802C1231.06 244.173 1286.3 1.00049 1354.53 1.00049C1422.76 1.00049 1478 243.833 1478 543.802" stroke="#7599B0" stroke-opacity="0.04" stroke-width="1.93402" stroke-miterlimit="10"/>
<path d="M860.812 504.351C860.812 356.407 916.053 236.692 984.281 236.692C1052.51 236.692 1107.75 356.407 1107.75 504.351" stroke="#7599B0" stroke-opacity="0.04" stroke-width="1.93402" stroke-miterlimit="10"/>
<path d="M614.031 504.351C614.031 356.407 669.271 236.692 737.5 236.692C805.729 236.692 860.969 356.407 860.969 504.351" stroke="#7599B0" stroke-opacity="0.04" stroke-width="1.93402" stroke-miterlimit="10"/>
<path d="M367.406 504.351C367.406 356.407 422.646 236.692 490.719 236.692C558.791 236.692 614.031 356.407 614.031 504.351" stroke="#7599B0" stroke-opacity="0.04" stroke-width="1.93402" stroke-miterlimit="10"/>
<path d="M120.625 504.351C120.625 356.407 175.709 236.692 243.781 236.692C311.853 236.692 366.937 356.407 366.937 504.351" stroke="#7599B0" stroke-opacity="0.04" stroke-width="1.93402" stroke-miterlimit="10"/>
<path d="M1107.59 504.351C1107.59 356.407 1162.68 236.692 1230.75 236.692C1298.82 236.692 1353.91 356.407 1353.91 504.351" stroke="#7599B0" stroke-opacity="0.04" stroke-width="1.93402" stroke-miterlimit="10"/>
</svg>
