<svg width="32" height="37" viewBox="0 0 32 37" fill="none" xmlns="http://www.w3.org/2000/svg">
<path d="M9.87456 18.8945C9.71578 19.1363 9.53969 22.8943 10.4578 22.9852C11.5082 23.0881 11.4105 21.3479 12.0558 20.4309C14.3256 17.2073 19.1562 17.6239 20.8906 21.1891C21.0758 21.5707 21.3507 22.8753 21.4463 22.9403C21.7598 23.152 23.5767 22.6845 24.0988 23.5996C26.1335 26.5225 29.1636 29.2706 31.1209 32.1765C32.5743 34.3333 32.3148 35.9745 29.6704 36.7527C20.9445 36.1554 11.1631 37.5289 2.56345 36.7587C0.647883 36.5869 -0.458504 34.9636 0.182732 33.1885C2.79246 30.3025 5.23934 26.2148 7.9539 23.5376C8.22974 23.2659 8.97276 23.0511 9.05113 22.9213C9.14986 22.7575 9.17836 19.6158 9.10304 19.2232C8.9982 18.6748 7.5427 17.9415 6.99612 17.9046C6.33555 17.8596 5.51212 18.3511 4.78131 18.3861C1.42653 18.5449 -0.924673 14.9727 0.437191 11.9279C0.640758 11.4723 1.34306 10.835 1.4021 10.4874C1.58734 9.39652 0.553224 8.61634 1.53238 6.4776C2.37515 4.63653 3.82862 4.82334 4.4383 4.01219C4.96859 3.30593 4.91668 1.98832 5.88973 1.08627C7.71471 -0.606946 11.1845 -0.263308 12.6573 1.71761C14.0253 3.55867 13.2619 2.99726 15.2386 4.50168C17.1857 5.98412 16.521 7.02802 17.033 8.78317C17.1704 9.25367 18.0183 9.68822 18.3185 10.1797C19.8107 12.6171 18.4834 16.3102 15.5734 16.8747C14.8691 17.0115 14.0782 16.7977 13.4614 16.9765C13.097 17.0824 12.7092 17.6918 12.2288 17.9425C11.7484 18.1933 9.94377 18.7896 9.87456 18.8945ZM9.10304 17.6528V12.698C9.10304 12.1896 5.46733 9.94395 5.65563 9.07686C6.019 8.54542 6.19916 8.82013 6.62156 9.09085C7.66077 9.75415 9.4603 12.8299 9.10406 9.67523H9.84199V14.2684C10.1534 14.3044 12.0914 12.5232 12.0537 13.664C12.0456 13.9198 10.0201 15.7169 9.8939 16.1304C9.35343 17.8916 10.2013 18.1064 11.5458 17.2702C12.0629 16.9486 12.4069 16.2593 13.0299 16.0685C13.7362 15.8527 14.4263 16.0425 15.1154 15.9396C17.5368 15.58 18.632 12.8109 17.5256 10.7161C17.1765 10.0558 16.3083 9.6093 16.1078 8.96598C15.5073 7.043 16.4243 6.60246 14.2604 4.97917C13.8604 4.67949 13.0685 4.51666 12.8589 4.30089C12.6044 4.03816 12.5413 3.25099 12.2695 2.82244C10.8181 0.53685 7.38392 0.137271 5.93859 2.5817C5.58642 3.17707 5.5681 3.94127 5.17013 4.48669C4.66121 5.18396 3.38179 5.46766 2.69984 6.41266C1.14255 8.56939 2.67236 9.34158 2.41688 10.7081C2.31204 11.2676 1.61177 11.7431 1.34408 12.3334C0.170518 14.9197 2.17056 17.7138 5.01541 17.3981C5.68108 17.3242 6.25412 16.8617 7.01139 16.9076C7.76866 16.9536 8.32643 17.6748 9.10304 17.6538V17.6528ZM16.4885 29.7371C17.2203 27.3027 20.4356 26.1249 20.4499 23.3339C20.4774 17.9585 11.7331 17.5569 12.2929 23.8293C12.4996 26.1389 15.2782 27.8631 16.4874 29.7371H16.4885ZM15.2599 29.9799C14.58 28.3376 12.7876 27.3316 11.9509 25.8552C10.9779 24.136 11.2497 22.5077 8.47809 24.4117L4.17672 29.9799H15.2589H15.2599ZM28.0653 29.9799C26.6963 28.7491 23.7762 23.6725 22.0265 23.6775C20.9598 23.6805 21.1491 24.8672 20.686 25.7583C19.8544 27.3566 17.9887 28.3166 17.4758 29.9799H28.0653ZM20.4315 30.9468H2.94615C2.25504 32.5362 -0.505325 34.1754 1.94664 35.6739C6.12994 35.556 11.0471 36.1943 15.152 35.7957C15.5836 35.7538 15.723 35.7857 16.1353 35.552C17.4574 34.8058 19.1409 31.9937 20.4315 30.9468ZM17.4758 35.7807H29.9127C30.6516 35.7807 31.131 34.4901 30.9794 33.7818C30.8796 33.3203 29.0068 30.9648 28.6892 30.9269C26.8276 31.2585 23.4963 30.5213 21.8362 30.9958C21.5603 31.0747 18.1954 34.601 17.8432 35.0525C17.6529 35.2963 17.3679 35.3572 17.4758 35.7788V35.7807Z" fill="#E6DEBC"/>
</svg>
