<svg width="15" height="15" viewBox="0 0 15 15" fill="none" xmlns="http://www.w3.org/2000/svg">
<path d="M3.81835 14.0327H1.03018V5.06859H3.81835V14.0327ZM2.40927 3.86937C1.53984 3.86937 0.820312 3.11986 0.820312 2.22045C0.820312 1.35102 1.53984 0.631495 2.40927 0.631495C3.30868 0.631495 4.02821 1.35102 4.02821 2.22045C4.02821 3.11986 3.30868 3.86937 2.40927 3.86937ZM14.2215 14.0327H11.4633V9.68556C11.4633 8.63625 11.4334 7.31711 9.9943 7.31711C8.55524 7.31711 8.34538 8.42639 8.34538 9.59562V14.0327H5.55721V5.06859H8.22546V6.29778H8.25544C8.64519 5.60823 9.5446 4.85873 10.8937 4.85873C13.7119 4.85873 14.2515 6.71751 14.2515 9.11594V14.0327H14.2215Z" fill="#0C1F35"/>
</svg>
