<svg width="30" height="31" viewBox="0 0 30 31" fill="none" xmlns="http://www.w3.org/2000/svg">
<path d="M0.214462 30.6557C-0.272321 30.5039 0.205946 29.3685 0.319482 29.0577C2.49652 23.0673 10.5462 19.8131 16.4571 21.8525L19.7283 13.343C17.0645 12.517 14.5142 11.2823 11.8816 10.3315C11.1621 9.95256 12.0576 8.57595 12.3755 8.04801C14.395 4.69305 17.9856 3.4101 21.7833 3.69394C22.07 3.71522 22.7909 3.99764 22.8349 3.96642C23.0279 3.82876 23.1287 3.07517 23.9036 3.12626C25.0347 3.20006 24.677 4.36379 24.9666 4.76968C25.0772 4.92579 26.3985 5.66945 26.7476 5.9689C29.525 8.33753 30.7526 12.6519 29.5236 16.1161C29.3689 16.5518 29.2482 17.1024 28.6635 16.9733L20.8069 13.9192L17.4434 22.2002C19.8262 23.1879 21.9494 24.7618 23.3884 26.9247C23.5644 27.19 25.591 30.6585 24.6217 30.6585H0.214462V30.6557ZM21.7861 4.68453C21.2979 4.55964 19.7283 4.68453 19.0897 4.68453C18.7817 4.68453 17.2419 5.26214 16.8601 5.43528C15.1202 6.21867 13.4456 7.85074 12.7743 9.65028C13.4782 9.61763 15.0294 10.6536 15.5488 10.6465C15.6992 10.6437 15.7319 10.594 15.827 10.506C16.142 10.2094 16.7537 8.83424 17.178 8.30772C18.3517 6.85021 20.2023 5.47218 22.0004 4.96837C22.0416 4.93005 21.8401 4.70014 21.7876 4.68595L21.7861 4.68453ZM16.748 11.21L20.1598 12.4305L22.8491 5.67654C20.1967 6.5536 17.679 8.52344 16.748 11.21ZM28.5259 15.7542C29.393 13.1699 28.8977 10.4067 27.3678 8.18567C26.7973 7.35828 25.9259 6.50109 24.9807 6.10372C26.329 8.68239 26.4964 11.7933 25.5598 14.5351C25.6052 14.7409 28.1072 15.6336 28.5273 15.7528L28.5259 15.7542ZM23.9845 6.24564C23.9135 6.18036 23.6368 6.21158 23.6708 6.42588L21.1433 12.8335C21.6073 12.9939 24.2527 14.2343 24.4727 14.1789C24.7409 14.1108 25.0716 12.3283 25.1056 11.9749C25.2135 10.8537 25.0758 9.57506 24.7977 8.48512C24.7253 8.2027 24.0725 6.32511 23.9859 6.24422L23.9845 6.24564ZM1.27885 29.6623H23.5601C22.6107 26.6593 19.9284 24.3942 17.1014 23.1368C16.8247 23.1553 16.0753 25.9738 15.8894 26.1115C15.8355 26.1512 14.8974 25.8376 14.8988 25.7481C14.9073 25.294 16.1321 22.9793 16.0384 22.8516C10.3659 21.0109 3.30262 23.9273 1.27885 29.6623Z" fill="#E6DEBC"/>
<path d="M5.77999 2.16439C9.79204 1.52859 10.9217 7.31463 7.27014 8.33644C2.8593 9.57114 1.55507 2.83424 5.77999 2.16439ZM6.06809 3.15072C3.67675 3.47998 3.66398 7.01943 5.89637 7.37139C9.38332 7.92204 9.12502 2.72922 6.06809 3.15072Z" fill="#E6DEBC"/>
<path d="M9.60744 1.29304C9.94805 1.20505 10.4263 1.71312 10.344 2.0296C10.3057 2.17862 9.47971 2.99891 9.31367 2.97053C9.20013 2.95066 8.63671 2.3844 8.6651 2.21977C8.68071 2.13462 9.4939 1.32285 9.60602 1.29304H9.60744Z" fill="#E6DEBC"/>
<path d="M3.22463 7.67927C3.56523 7.59128 4.0435 8.09935 3.96119 8.41583C3.92287 8.56485 3.0969 9.38514 2.93086 9.35676C2.81732 9.33689 2.2539 8.77063 2.28229 8.606C2.2979 8.52085 3.11109 7.70908 3.22321 7.67927H3.22463Z" fill="#E6DEBC"/>
<path d="M6.81516 0H5.82031V1.56253H6.81516V0Z" fill="#E6DEBC"/>
<path d="M11.6407 4.8252H10.0781V5.82005H11.6407V4.8252Z" fill="#E6DEBC"/>
<path d="M6.81516 9.08276H5.82031V10.6453H6.81516V9.08276Z" fill="#E6DEBC"/>
<path d="M2.70315 4.8252C2.91319 6.15356 2.10426 5.79166 1.14062 5.82005V4.8252H2.70315Z" fill="#E6DEBC"/>
<path d="M9.10259 7.68516C9.39495 7.51485 10.3217 8.43875 10.3515 8.60763C10.3926 8.84464 9.86328 9.17673 9.72278 9.36548C9.58796 9.18666 8.66264 8.37914 8.66406 8.30392C8.66406 8.26561 9.06995 7.70361 9.10259 7.68516Z" fill="#E6DEBC"/>
<path d="M2.9291 1.28853C3.09089 1.26014 3.94382 2.10882 3.96369 2.21952C4.00485 2.45652 3.47549 2.78861 3.33499 2.97736L2.27344 1.91581C2.44658 1.79234 2.76732 1.31549 2.9291 1.28711V1.28853Z" fill="#E6DEBC"/>
</svg>
