<svg width="14" height="15" viewBox="0 0 14 15" fill="none" xmlns="http://www.w3.org/2000/svg">
<path d="M6.97341 3.82875C8.86218 3.82875 10.4212 5.38772 10.4212 7.27649C10.4212 9.19523 8.86218 10.7242 6.97341 10.7242C5.05467 10.7242 3.52567 9.19523 3.52567 7.27649C3.52567 5.38772 5.05467 3.82875 6.97341 3.82875ZM6.97341 9.52501C8.20261 9.52501 9.19196 8.53566 9.19196 7.27649C9.19196 6.04729 8.20261 5.05794 6.97341 5.05794C5.71424 5.05794 4.72489 6.04729 4.72489 7.27649C4.72489 8.53566 5.74422 9.52501 6.97341 9.52501ZM11.3505 3.70882C11.3505 4.15853 10.9908 4.51829 10.5411 4.51829C10.0914 4.51829 9.73161 4.15853 9.73161 3.70882C9.73161 3.25912 10.0914 2.89935 10.5411 2.89935C10.9908 2.89935 11.3505 3.25912 11.3505 3.70882ZM13.6291 4.51829C13.689 5.62757 13.689 8.95539 13.6291 10.0647C13.5691 11.144 13.3292 12.0733 12.5498 12.8828C11.7703 13.6623 10.8109 13.9021 9.73161 13.9621C8.62233 14.0221 5.29451 14.0221 4.18524 13.9621C3.10595 13.9021 2.17656 13.6623 1.36709 12.8828C0.587596 12.0733 0.347754 11.144 0.287793 10.0647C0.227832 8.95539 0.227832 5.62757 0.287793 4.51829C0.347754 3.439 0.587596 2.47963 1.36709 1.70014C2.17656 0.92065 3.10595 0.680807 4.18524 0.620847C5.29451 0.560886 8.62233 0.560886 9.73161 0.620847C10.8109 0.680807 11.7703 0.92065 12.5498 1.70014C13.3292 2.47963 13.5691 3.439 13.6291 4.51829ZM12.19 11.2339C12.5498 10.3645 12.4598 8.26584 12.4598 7.27649C12.4598 6.31711 12.5498 4.21849 12.19 3.31908C11.9502 2.74945 11.5004 2.26977 10.9308 2.0599C10.0314 1.70014 7.93278 1.79008 6.97341 1.79008C5.98406 1.79008 3.88544 1.70014 3.01601 2.0599C2.4164 2.29975 1.96669 2.74945 1.72685 3.31908C1.36709 4.21849 1.45703 6.31711 1.45703 7.27649C1.45703 8.26584 1.36709 10.3645 1.72685 11.2339C1.96669 11.8335 2.4164 12.2832 3.01601 12.523C3.88544 12.8828 5.98406 12.7929 6.97341 12.7929C7.93278 12.7929 10.0314 12.8828 10.9308 12.523C11.5004 12.2832 11.9801 11.8335 12.19 11.2339Z" fill="#0C1F35"/>
</svg>
