<svg width="155" height="35" viewBox="0 0 155 35" fill="none" xmlns="http://www.w3.org/2000/svg">
<path fill-rule="evenodd" clip-rule="evenodd" d="M0.282643 0.433515C0.583169 1.47096 1.74033 3.65312 2.56842 4.74402C5.60378 8.74209 10.5659 11.5758 16.356 12.6173C18.5791 13.0172 22.9082 13.012 25.1648 12.6065C28.2449 12.053 31.9762 10.5774 34.328 8.98242C35.534 8.16473 37.5096 6.26192 38.4192 5.04241C39.2751 3.8948 40.4056 1.58074 40.5733 0.633275C40.7388 -0.302653 40.2276 -0.169993 39.8322 0.825537C38.8592 3.27514 36.4396 6.14022 33.9515 7.78886C28.2079 11.5947 19.6849 12.2239 12.9335 9.34079C8.88006 7.60986 5.46335 4.44351 4.13586 1.18757L3.69433 0.104556L1.92474 0.0489926C0.161506 -0.00618643 0.155719 -0.00484061 0.282643 0.433515ZM10.6188 0.537145C11.0335 1.63303 11.8473 2.79429 12.9966 3.92998C17.2753 8.15743 24.6461 9.07663 30.6565 6.13195C32.6872 5.137 34.9371 3.00578 35.738 1.31811C36.3408 0.047454 36.348 0.00842572 35.9757 0.00842572C35.821 0.00842572 35.4778 0.376029 35.213 0.825537C34.0984 2.71739 31.7278 4.44543 29.0234 5.33772C27.6713 5.78396 27.158 5.84817 24.8763 5.85779C22.9759 5.86567 21.9443 5.77877 21.0587 5.53594C18.125 4.7319 15.2555 2.77026 14.2504 0.881485L13.7855 0.00842572H12.1021H10.419L10.6188 0.537145ZM44.0864 0.248752C43.7394 1.49384 42.8861 3.90922 42.5751 4.52657C41.7686 6.12811 40.119 8.41083 39.0286 9.43423C35.2195 13.0093 30.7863 14.8347 23.6224 15.7777C18.3152 16.4762 15.2328 17.3139 11.6631 19.0279C5.19986 22.1312 0.671707 27.8802 0.0685317 33.7488C-0.0516404 34.9177 -0.0321574 35.0329 0.276085 34.9715C0.495597 34.9279 0.736133 34.5292 0.954488 33.8464C2.09873 30.2706 4.37949 27.1486 7.58035 24.7771C11.5761 21.8163 16.3209 20.1069 22.9473 19.2403C28.1138 18.5647 30.4495 17.9701 33.464 16.5625C37.8857 14.4978 41.0626 11.4562 42.9952 7.43702C44.0278 5.28946 44.4934 3.63313 44.6786 1.44866C44.7862 0.180307 44.7621 0.00842572 44.477 0.00842572C44.299 0.00842572 44.1233 0.116669 44.0864 0.248752ZM75.2212 7.07922C72.0921 8.0861 69.993 8.4735 67.0233 8.59174C63.7788 8.72114 62.1634 8.44101 59.9895 7.37223C59.1901 6.97925 58.4652 6.62318 58.3784 6.58127C58.2918 6.53916 58.2484 6.83832 58.282 7.24591C58.3398 7.94709 58.4093 8.01977 59.5666 8.58771C61.58 9.57555 63.3494 9.90816 66.4446 9.88086C67.9299 9.86778 69.5791 9.76781 70.1094 9.65899C70.6398 9.55017 71.0941 9.48134 71.1192 9.50633C71.1442 9.53113 68.2582 13.1126 64.7057 17.465C59.398 23.9677 58.2467 25.4819 58.2467 25.9593V26.5405H67.8913H77.5359V25.9637V25.3869H70.3025C66.324 25.3869 63.069 25.3417 63.069 25.2864C63.069 25.2068 76.0047 9.31292 77.0938 8.05418C77.2501 7.87365 77.3423 7.45413 77.3075 7.08191L77.2466 6.42746L75.2212 7.07922ZM87.4516 7.01155C82.7622 8.07475 79.4479 11.2984 78.8877 15.3413C78.1653 20.5566 81.4561 24.9782 87.1805 26.4838C88.8736 26.9291 92.7632 26.9275 94.5705 26.4807C101.288 24.8203 104.723 18.6047 102.133 12.7938C101.085 10.4411 98.5506 8.34123 95.6129 7.39107C94.2734 6.95791 93.6104 6.86831 91.3277 6.81179C89.4943 6.76641 88.2498 6.83044 87.4516 7.01155ZM114.475 7.02251C110.742 7.84289 107.991 9.80626 106.676 12.5883C103.904 18.4528 107.292 24.7988 114.089 26.473C115.935 26.9275 119.807 26.9331 121.515 26.4838C127.699 24.8574 130.953 19.9138 129.578 14.2358C128.773 10.91 125.571 8.10109 121.465 7.12017C119.593 6.67278 116.277 6.62645 114.475 7.02251ZM133.668 16.8144V26.5405H138.84C141.685 26.5405 144.528 26.4496 145.158 26.3384C150.544 25.3879 153.881 22.453 154.494 18.1291C154.708 16.6167 154.529 14.7178 154.041 13.3402C153.093 10.6618 150.578 8.66961 146.881 7.66735C145.496 7.29206 144.739 7.24091 139.503 7.16882L133.668 7.08826V16.8144ZM89.5917 7.88038C85.7393 8.41813 83.8238 10.5959 83.3223 15.0079C83.0862 17.086 83.341 19.7748 83.9257 21.3737C85.0273 24.3851 87.6178 25.9126 91.3073 25.7261C95.3364 25.5227 97.4247 23.6968 98.2921 19.6191C98.702 17.6922 98.5639 14.4465 97.9958 12.6577C96.8879 9.16891 93.6293 7.31647 89.5917 7.88038ZM116.264 7.90518C113.913 8.25279 111.956 9.66495 111.075 11.651C110.178 13.6703 109.875 17.2935 110.399 19.7243C111.281 23.8208 113.684 25.7626 117.878 25.7691C121.371 25.7745 123.827 24.1228 124.86 21.0737C125.405 19.4635 125.622 16.9547 125.383 15C124.817 10.3621 122.728 8.17915 118.526 7.83635C117.889 7.78444 116.872 7.81539 116.264 7.90518ZM137.718 16.8313V25.3869L140.178 25.3854C144.084 25.3831 146.229 24.8638 147.814 23.536C149.667 21.9837 150.527 18.7176 150.069 14.9662C149.457 9.94795 146.874 8.2824 139.696 8.2772L137.718 8.27567V16.8313ZM21.79 22.7057C15.8001 23.319 9.9888 26.2815 6.67317 30.4119C5.66589 31.6668 4.04385 34.419 4.04385 34.8733C4.04385 34.9431 4.86847 35 5.87633 35C7.16601 35 7.70881 34.9321 7.70881 34.7708C7.70881 34.3269 9.26025 31.9457 10.2629 30.8508C14.0853 26.6762 20.1986 24.3727 26.6642 24.6711C34.1789 25.0178 40.4938 28.4295 43.5868 33.8134C44 34.5324 44.392 34.9908 44.597 34.9942C44.8993 34.9994 44.8867 34.8973 44.4695 33.957C42.5221 29.568 37.8845 25.7347 32.2432 23.851C29.1814 22.8285 25.0311 22.3738 21.79 22.7057ZM21.6935 28.8419C17.8714 29.6686 15.1913 30.9883 13.0616 33.092C11.6429 34.4936 11.3022 35 11.7783 35C11.8946 35 12.5346 34.5022 13.2007 33.8939C18.5928 28.9693 30.2861 29.0351 36.1522 34.0229L37.301 35H39.1069H40.9126L40.511 34.4376C38.9375 32.2355 35.3476 30.0616 31.7195 29.1141C29.0315 28.4122 24.2769 28.2832 21.6935 28.8419Z" fill="#1E1E1E"/>
</svg>
